<svg width="470" height="578" viewBox="0 0 470 578" fill="none" xmlns="http://www.w3.org/2000/svg">
<g clip-path="url(#clip0_2111_911)">
<path d="M56.0992 62.1885H59.7509L97.0341 254.591L93.3031 286.521L92.2928 287.883L54.9766 64.1321L56.0992 62.1885Z" fill="#090E19"/>
<path d="M413.884 62.1885H410.232L372.949 254.591L376.674 286.521L377.691 287.883L415 64.1321L413.884 62.1885Z" fill="#090E19"/>
<path d="M291.962 447.468L305.096 293.634H164.746L175.14 446.86C175.14 446.86 218.994 469.006 234.921 468.96C250.155 468.914 291.962 447.462 291.962 447.462V447.468Z" fill="#404F77"/>
<path d="M411.102 62.1882L382.602 50.9167L339.078 30.2314L290.741 5.18945L228.859 343.387L234.987 433.923C234.987 433.923 239.465 476.12 248.34 518.178C254.672 548.211 266.948 570.834 284.256 576.129C299.47 580.79 322.292 575.726 339.639 571.64C359.985 566.847 378.263 558.485 378.263 558.485L371.105 413.648L378.263 249.969L411.102 62.1816V62.1882Z" fill="#10172A"/>
<path d="M58.457 62.1882L86.9576 50.9167L130.481 30.2314L178.819 5.18945L240.706 343.387L234.572 433.923C234.572 433.923 230.095 476.12 221.219 518.178C214.88 548.211 202.604 570.834 185.303 576.129C170.089 580.79 147.274 575.726 129.92 571.64C109.575 566.847 91.2961 558.485 91.2961 558.485L98.4543 413.648L91.2961 249.969L58.4636 62.1816L58.457 62.1882Z" fill="#10172A"/>
<path d="M413.882 62.1885L432.372 72.389V97.5367L456.983 289.813L469.999 533.985L403.442 536.768L388.974 343.394L376.672 286.521L381.043 249.976L413.882 62.1885Z" fill="#10172A"/>
<path d="M56.1202 62.1885L37.6305 72.389V97.5367L13.026 289.813L0.00390625 533.985L66.5669 536.768L81.0285 343.394L93.3308 286.521L88.9593 249.976L56.1202 62.1885Z" fill="#10172A"/>
<path d="M175.77 172.265H294.071V47.0557H175.77V172.265Z" fill="#C2CDE9"/>
<path d="M292.979 0C292.979 0 282.414 15.324 266.565 28.2944C253.088 39.328 237.9 47.056 234.921 48.5303C231.943 47.056 216.749 39.328 203.271 28.2944C187.436 15.324 176.87 0 176.87 0C176.87 0 172.987 27.6466 176.87 56.5955C179.941 79.5219 190.018 113.204 190.018 113.204L234.921 49.5483L279.825 113.204C279.825 113.204 289.909 79.5219 292.979 56.5955C296.855 27.6466 292.979 0 292.979 0V0Z" fill="#9AAACC"/>
<path d="M244.546 97.3779H225.303L209.336 214H260.519L244.546 97.3779Z" fill="#B23F36"/>
<path d="M250.185 47.0557H219.664L209.336 66.3395L225.303 97.3775H244.546L260.519 66.3395L250.185 47.0557Z" fill="#B23F36"/>
<path d="M217.633 82.4703L251.165 48.9004L252.928 52.1794L219.343 85.7956L217.633 82.4703Z" fill="#A06868"/>
<path d="M219.344 85.7959L252.929 52.1797L253.583 53.4093L219.984 87.0453L219.344 85.7959Z" fill="#A03333"/>
<path d="M216.992 81.2207L250.505 47.6641L251.165 48.9003L217.633 82.4702L216.992 81.2207Z" fill="#A03333"/>
<path d="M224.566 95.9501L258.29 62.1885L260.053 65.4675L224.844 100.71L225.299 97.378L224.566 95.9501Z" fill="#A06868"/>
<path d="M224.844 100.709L260.054 65.4668L260.516 66.3394L259.935 67.4699L224.547 102.897L224.844 100.709Z" fill="#A03333"/>
<path d="M223.93 94.7008L257.634 60.959L258.294 62.1886L224.57 95.9502L223.93 94.7008Z" fill="#A03333"/>
<path d="M222.401 118.539L245.605 95.3086L244.542 97.3778L245.024 100.928L221.602 124.377L222.401 118.539Z" fill="#A06868"/>
<path d="M221.602 124.376L245.024 100.928L245.255 102.587L221.305 126.565L221.602 124.376Z" fill="#A03333"/>
<path d="M222.707 116.344L247.616 91.4014L245.608 95.3084L222.41 118.532L222.707 116.344Z" fill="#A03333"/>
<path d="M219.166 142.206L246.881 114.454L247.489 118.883L218.367 148.044L219.166 142.206Z" fill="#A06868"/>
<path d="M218.366 148.043L247.488 118.883L247.712 120.549L218.062 150.231L218.366 148.043Z" fill="#A03333"/>
<path d="M219.465 140.012L246.652 112.788L246.883 114.454L219.168 142.2L219.465 140.012Z" fill="#A03333"/>
<path d="M215.924 165.873L249.344 132.415L249.952 136.844L215.125 171.71L215.924 165.873Z" fill="#A06868"/>
<path d="M215.124 171.704L249.951 136.845L250.175 138.504L214.82 173.899L215.124 171.704Z" fill="#A03333"/>
<path d="M216.223 163.678L249.115 130.749L249.346 132.408L215.926 165.866L216.223 163.678Z" fill="#A03333"/>
<path d="M212.682 189.533L251.801 150.37L252.408 154.799L211.883 195.37L212.682 189.533Z" fill="#A06868"/>
<path d="M211.883 195.371L252.409 154.8L252.633 156.466L211.586 197.565L211.883 195.371Z" fill="#A03333"/>
<path d="M212.987 187.338L251.578 148.704L251.803 150.37L212.684 189.533L212.987 187.338Z" fill="#A03333"/>
<path d="M255.039 76.9698L260.519 66.3329L250.185 47.0557H235.69C235.387 47.2077 235.129 47.3399 234.931 47.4457C234.74 47.3399 234.469 47.2077 234.172 47.0557H219.67L209.336 66.3329L214.804 76.9698L234.924 48.4439L255.039 76.9698Z" fill="#561E1A"/>
<path d="M245.224 102.363L244.544 97.3779H225.301L224.621 102.363H245.224Z" fill="#561E1A"/>
<path d="M291.963 204.592L305.098 50.7578L234.922 194.022L164.754 50.7578L175.141 203.984L234.922 341.741L291.963 204.592Z" fill="#404F77"/>
<path d="M234.922 341.742L294.763 30.0732L344.54 78.9737L325.766 88.3743L351.123 115.651L234.922 341.742Z" fill="#1F2847"/>
<path d="M234.924 341.742L175.083 30.0732L125.293 78.9737L144.087 88.3743L118.723 115.651L234.924 341.742Z" fill="#1F2847"/>
<path d="M241.988 228.537C241.988 232.444 238.825 235.611 234.929 235.611C231.026 235.611 227.863 232.444 227.863 228.537C227.863 224.637 231.02 221.457 234.929 221.457C238.825 221.457 241.988 224.63 241.988 228.537Z" fill="#014D77"/>
<path d="M241.988 228.537C241.988 232.444 238.825 235.611 234.929 235.611C231.026 235.611 227.863 232.444 227.863 228.537C227.863 224.637 231.02 221.457 234.929 221.457C238.825 221.457 241.988 224.63 241.988 228.537Z" fill="#05080F"/>
<path d="M241.988 279.282C241.988 283.189 238.825 286.355 234.929 286.355C231.026 286.355 227.863 283.189 227.863 279.282C227.863 275.381 231.02 272.208 234.929 272.208C238.825 272.208 241.988 275.375 241.988 279.282Z" fill="#05080F"/>
<path d="M241.988 227.598C241.988 231.505 238.825 234.672 234.929 234.672C231.026 234.672 227.863 231.512 227.863 227.598C227.863 223.698 231.02 220.538 234.929 220.538C238.825 220.538 241.988 223.698 241.988 227.598Z" fill="#10172A"/>
<path d="M233.646 230.19C233.646 230.904 233.059 231.506 232.339 231.506C231.619 231.506 231.031 230.911 231.031 230.19C231.031 229.476 231.619 228.888 232.339 228.888C233.059 228.888 233.646 229.469 233.646 230.19Z" fill="#05080F"/>
<path d="M238.805 230.19C238.805 230.904 238.224 231.506 237.504 231.506C236.791 231.506 236.203 230.911 236.203 230.19C236.203 229.476 236.791 228.888 237.504 228.888C238.224 228.888 238.805 229.469 238.805 230.19Z" fill="#05080F"/>
<path d="M237.503 226.303C236.79 226.303 236.195 225.721 236.195 225.007C236.195 224.293 236.79 223.698 237.503 223.698C238.223 223.698 238.804 224.287 238.804 225.007C238.804 225.721 238.223 226.303 237.503 226.303Z" fill="#05080F"/>
<path d="M232.339 226.303C231.619 226.303 231.031 225.721 231.031 225.007C231.031 224.293 231.619 223.698 232.339 223.698C233.059 223.698 233.646 224.287 233.646 225.007C233.646 225.721 233.059 226.303 232.339 226.303Z" fill="#05080F"/>
<path d="M241.988 278.35C241.988 282.244 238.825 285.43 234.929 285.43C231.026 285.43 227.863 282.251 227.863 278.35C227.863 274.443 231.02 271.283 234.929 271.283C238.825 271.283 241.988 274.443 241.988 278.35Z" fill="#10172A"/>
<path d="M233.646 280.941C233.646 281.662 233.059 282.244 232.339 282.244C231.619 282.244 231.031 281.662 231.031 280.941C231.031 280.221 231.619 279.646 232.339 279.646C233.059 279.646 233.646 280.221 233.646 280.941Z" fill="#05080F"/>
<path d="M238.804 280.941C238.804 281.662 238.223 282.244 237.503 282.244C236.79 282.244 236.195 281.662 236.195 280.941C236.195 280.221 236.79 279.646 237.503 279.646C238.223 279.646 238.804 280.221 238.804 280.941Z" fill="#05080F"/>
<path d="M237.503 277.061C236.79 277.061 236.195 276.472 236.195 275.752C236.195 275.038 236.79 274.449 237.503 274.449C238.223 274.449 238.804 275.038 238.804 275.752C238.804 276.472 238.223 277.061 237.503 277.061Z" fill="#05080F"/>
<path d="M232.339 277.061C231.619 277.061 231.031 276.472 231.031 275.752C231.031 275.038 231.619 274.449 232.339 274.449C233.059 274.449 233.646 275.038 233.646 275.752C233.646 276.472 233.059 277.061 232.339 277.061Z" fill="#05080F"/>
<path d="M292.979 0C292.979 0 282.414 14.7686 266.565 27.2698C253.088 37.9 237.9 45.3504 234.921 46.7718C231.943 45.3504 216.749 37.9 203.271 27.2698C187.436 14.7686 176.87 0 176.87 0C176.87 0 172.987 26.6483 176.87 54.5329C179.941 76.633 190.018 109.072 190.018 109.072L234.921 47.737L279.825 109.072C279.825 109.072 289.909 76.6264 292.979 54.5329C296.855 26.6483 292.979 0 292.979 0V0Z" fill="#C2CDE9"/>
<path d="M326.729 211.21H357.35L361.325 207.23C362.355 206.205 362.382 204.573 361.398 203.588L346.289 188.449C345.305 187.464 343.674 187.49 342.65 188.521L325.211 205.974C324.187 206.992 324.154 208.625 325.145 209.61L326.729 211.203V211.21Z" fill="white"/>
<path d="M351.354 208.969L336.787 194.379L325.211 205.981C324.187 206.999 324.154 208.632 325.145 209.617L326.729 211.21H352.12C352.212 210.417 351.955 209.59 351.347 208.969H351.354Z" fill="#D1D3D4"/>
<path d="M348.636 208.969L332.213 192.528C331.137 191.457 329.4 191.457 328.337 192.528L315.434 205.445V211.21H349.415C349.501 210.417 349.243 209.59 348.636 208.969Z" fill="white"/>
<path d="M311.113 219.262H366.444V204.368H311.113V219.262Z" fill="#1F2847"/>
<path d="M242.32 384.196C242.32 388.09 239.164 391.276 235.261 391.276C231.352 391.276 228.195 388.096 228.195 384.196C228.195 380.289 231.352 377.129 235.261 377.129C239.157 377.129 242.32 380.289 242.32 384.196Z" fill="#05080F"/>
<path d="M233.977 386.788C233.977 387.508 233.389 388.09 232.669 388.09C231.956 388.09 231.375 387.508 231.375 386.788C231.375 386.067 231.956 385.485 232.669 385.485C233.389 385.485 233.977 386.061 233.977 386.788Z" fill="#10172A"/>
<path d="M239.142 386.788C239.142 387.508 238.555 388.09 237.835 388.09C237.122 388.09 236.527 387.508 236.527 386.788C236.527 386.067 237.122 385.485 237.835 385.485C238.555 385.485 239.142 386.061 239.142 386.788Z" fill="#10172A"/>
<path d="M237.835 382.907C237.122 382.907 236.527 382.319 236.527 381.598C236.527 380.884 237.122 380.296 237.835 380.296C238.555 380.296 239.142 380.884 239.142 381.598C239.142 382.319 238.555 382.907 237.835 382.907Z" fill="#10172A"/>
<path d="M232.669 382.907C231.956 382.907 231.375 382.319 231.375 381.598C231.375 380.884 231.956 380.296 232.669 380.296C233.389 380.296 233.977 380.884 233.977 381.598C233.977 382.319 233.389 382.907 232.669 382.907Z" fill="#10172A"/>
<path d="M236.632 332.837C236.632 332.837 226.575 369.858 226.06 383.82C225.551 397.385 234.565 433.328 234.565 433.328L234.783 430.849C234.783 430.849 227.433 396.942 228.193 383.82C228.86 372.324 236.632 332.844 236.632 332.844V332.837Z" fill="#090E19"/>
</g>
<defs>
<clipPath id="clip0_2111_911">
<rect width="470" height="578" fill="white"/>
</clipPath>
</defs>
</svg>
