<svg width="93" height="177" viewBox="0 0 93 177" fill="none" xmlns="http://www.w3.org/2000/svg">
<g clip-path="url(#clip0_2312_305)">
<path fill-rule="evenodd" clip-rule="evenodd" d="M18.7671 17.5975C28.438 17.5975 38.1017 17.5975 47.2764 17.6267C56.4511 17.6559 65.1294 17.707 73.8077 17.7654C73.6472 15.2473 73.4793 12.7219 73.2238 10.795C72.9684 8.86808 72.6107 7.53239 72.2166 6.45216C71.8225 5.37193 71.3845 4.55446 70.9466 3.73699C67.0198 3.43773 63.093 3.13848 59.0859 2.94871C55.0789 2.75894 50.9915 2.67865 46.7071 2.66405C42.43 2.64946 37.9558 2.70785 34.0144 2.83923C30.073 2.97791 26.6644 3.19687 24.6061 3.32825C22.5479 3.46693 21.8399 3.51802 21.1319 3.57641C20.694 4.39388 20.256 5.21136 19.9057 6.27699C19.548 7.34262 19.278 8.64912 19.1028 10.576C18.9276 12.5029 18.8401 15.0502 18.7598 17.6048L18.7671 17.5975Z" fill="#0C0800" stroke="#373435" stroke-width="0.759081" stroke-miterlimit="22.9256"/>
<path fill-rule="evenodd" clip-rule="evenodd" d="M46.707 2.66406C46.7435 1.93417 46.78 1.20429 46.8164 0.467102C42.4517 0.547389 38.0943 0.627677 33.8099 0.824746C29.5328 1.01452 25.3286 1.31377 21.1318 1.61302C19.6355 3.08739 18.1319 4.55446 16.5408 6.50325C14.9496 8.45205 13.2636 10.8753 11.5338 13.2328C9.80395 15.5903 8.02303 17.8822 6.24941 20.1813C5.48303 21.736 4.72395 23.2906 3.81159 25.4584C2.89924 27.6261 1.8336 30.407 0.775269 33.1879C2.4905 34.5528 4.21303 35.9176 5.92826 37.2752C7.45372 36.3191 8.97918 35.3702 11.2783 33.8083C13.5702 32.2463 16.6357 30.0786 19.6939 27.9035C19.3874 24.473 19.0808 21.0426 18.9932 18.0354C18.9056 15.0283 19.0443 12.4591 19.2341 10.5687C19.4238 8.67831 19.672 7.4813 19.9932 6.43027C20.3216 5.37923 20.7303 4.48147 21.1391 3.58371C25.4308 3.33555 29.7298 3.09469 33.9924 2.94141C38.2549 2.78814 42.4809 2.72975 46.7143 2.67136L46.707 2.66406Z" fill="#0C0800" stroke="#373435" stroke-width="0.759081" stroke-miterlimit="22.9256"/>
<path fill-rule="evenodd" clip-rule="evenodd" d="M46.8165 0.467127C46.78 1.19701 46.7435 1.9269 46.707 2.66408C49.5755 2.70788 52.4439 2.75897 55.3197 2.81006C58.1881 2.86115 61.0566 2.92684 63.6623 3.08012C66.268 3.23339 68.6036 3.48885 70.9465 3.73701C71.3699 4.64207 71.7932 5.54713 72.1727 6.72225C72.5523 7.89736 72.888 9.34254 73.1508 11.2329C73.4135 13.116 73.6106 15.4444 73.6398 17.4005C73.669 19.3566 73.523 20.955 73.3625 22.6483C73.2019 24.3417 73.0194 26.1372 72.8296 27.94C73.8953 28.6261 74.9536 29.3122 76.4645 30.3997C77.9753 31.4946 79.9387 32.9908 81.7269 34.2608C83.5152 35.5308 85.1209 36.5673 86.7267 37.6037C88.5003 36.1877 90.2739 34.7717 92.0402 33.3485C91.3322 31.5748 90.6242 29.8012 90.0184 28.2612C89.4126 26.7138 88.9163 25.4 88.5076 24.1154C88.0988 22.8308 87.7777 21.59 87.4638 20.3419C86.1282 18.7581 84.7925 17.1815 83.3473 15.4882C81.9021 13.7948 80.3475 11.9993 78.7563 10.0359C77.1579 8.07253 75.5229 5.94857 74.3697 4.50339C73.2092 3.05822 72.5304 2.29914 71.8443 1.53276C69.8006 1.2846 67.7569 1.03644 65.3848 0.890461C63.0127 0.737185 60.3121 0.686093 57.8232 0.605805C55.327 0.525518 53.0351 0.416035 51.2396 0.38684C49.4368 0.357644 48.1303 0.416035 46.8238 0.467127H46.8165Z" fill="#0C0800" stroke="#373435" stroke-width="0.759081" stroke-miterlimit="22.9256"/>
<path fill-rule="evenodd" clip-rule="evenodd" d="M19.6867 27.8962C17.6065 29.3633 15.519 30.8377 13.833 32.0055C12.1469 33.1806 10.8623 34.0565 9.60694 34.8812C8.35153 35.706 7.13992 36.487 5.61446 37.5307C4.089 38.5745 2.26429 39.8809 0.439575 41.1874C1.41762 44.2968 2.40297 47.4061 3.67297 51.1942C4.94297 54.9823 6.49763 59.4565 7.9428 63.3541C9.38797 67.2517 10.7237 70.5799 12.3732 74.3972C14.0227 78.2145 15.9861 82.5209 17.7744 86.7761C19.5626 91.0313 21.1683 95.2282 23.1171 99.7097C25.0659 104.191 27.3578 108.965 29.4306 113.57C31.5035 118.176 33.3574 122.621 35.3354 127.241C37.3134 131.861 39.4082 136.664 40.8387 140.123C42.2693 143.583 43.0357 145.714 43.7948 147.838C44.3349 146.444 44.875 145.05 45.2983 143.766C45.7217 142.474 46.0282 141.291 46.3275 140.109C45.364 136.299 44.4006 132.496 43.1087 127.599C41.8168 122.708 40.1964 116.723 38.9118 112.037C37.6272 107.352 36.6711 103.958 35.3646 99.1039C34.0581 94.2501 32.394 87.9366 30.7079 81.156C29.0219 74.3753 27.3213 67.1349 25.9053 60.7338C24.4893 54.3327 23.358 48.771 22.4967 44.3333C21.6355 39.8955 21.0588 36.5819 20.6355 34.0273C20.2122 31.4727 19.9494 29.6771 19.6867 27.8743V27.8962Z" fill="#0C0800" stroke="#373435" stroke-width="0.759081" stroke-miterlimit="22.9256"/>
<path fill-rule="evenodd" clip-rule="evenodd" d="M72.8296 27.94C75.1579 29.5822 77.4863 31.2245 79.8 32.8375C82.1137 34.4506 84.4275 36.0271 86.493 37.465C88.5586 38.9102 90.3833 40.2167 92.2153 41.5232C90.9599 44.8515 89.7045 48.1724 88.1134 52.632C86.5149 57.0916 84.5807 62.6753 82.6611 67.6969C80.7415 72.7112 78.8293 77.1562 76.8294 81.791C74.8222 86.4257 72.7274 91.2503 70.7202 95.885C68.713 100.52 66.808 104.965 64.7644 109.819C62.7207 114.672 60.5383 119.935 58.4362 124.905C56.3342 129.883 54.3197 134.569 52.4658 139.029C50.6119 143.488 48.9185 147.714 47.4077 151.648C45.8968 155.59 44.5611 159.239 43.5101 161.801C42.4591 164.363 41.7 165.837 41.0723 167.706C40.4446 169.574 39.9555 171.837 39.4665 174.1C39.3059 171.866 39.1381 169.625 39.2184 167.487C39.2986 165.348 39.6271 163.305 40.065 161.356C40.503 159.407 41.0431 157.553 41.6854 155.32C42.3277 153.086 43.0649 150.466 43.9553 147.481C44.8531 144.488 45.9041 141.123 46.9551 137.474C48.0062 133.825 49.0572 129.89 50.2469 125.599C51.4293 121.307 52.7504 116.672 54.181 111.337C55.6116 106.001 57.1589 99.9797 58.8523 93.1261C60.5456 86.2725 62.3849 78.5941 64.1221 71.4485C65.8592 64.3029 67.4868 57.6974 68.7422 51.9167C69.9976 46.136 70.8808 41.1874 71.5012 37.3263C72.1216 33.4652 72.4792 30.7063 72.8442 27.94H72.8296Z" fill="#0C0800" stroke="#373435" stroke-width="0.759081" stroke-miterlimit="22.9256"/>
<path fill-rule="evenodd" clip-rule="evenodd" d="M80.1869 40.8663C80.9752 41.764 81.7707 42.6618 82.5152 43.472C83.267 44.2748 83.975 44.9828 84.6173 45.5594C85.2596 46.1287 85.8289 46.5667 86.3106 46.647C86.7851 46.7273 87.1719 46.4572 87.0989 46.0704C87.0332 45.6908 86.515 45.1945 86.0844 44.8733C85.661 44.5449 85.3253 44.377 84.683 43.9172C84.0407 43.4574 83.0991 42.691 82.2963 42.1363C81.4934 41.5816 80.8438 41.2239 80.1869 40.8663Z" stroke="#373435" stroke-width="0.759081" stroke-miterlimit="22.9256"/>
</g>
<defs>
<clipPath id="clip0_2312_305">
<rect width="92.6623" height="176.734" fill="white"/>
</clipPath>
</defs>
</svg>
