<?xml version="1.0" encoding="UTF-8"?>
<!DOCTYPE svg PUBLIC "-//W3C//DTD SVG 1.0//EN" "http://www.w3.org/TR/2001/REC-SVG-20010904/DTD/svg10.dtd">
<!-- Creator: CorelDRAW -->
<svg xmlns="http://www.w3.org/2000/svg" xml:space="preserve" width="24.5169mm" height="46.761mm" version="1.0" style="shape-rendering:geometricPrecision; text-rendering:geometricPrecision; image-rendering:optimizeQuality; fill-rule:evenodd; clip-rule:evenodd"
viewBox="0 0 126.95 242.14"
 xmlns:xlink="http://www.w3.org/1999/xlink"
 xmlns:xodm="http://www.corel.com/coreldraw/odm/2003">
 <defs>
  <style type="text/css">
   <![CDATA[
    .str0 {stroke:#373435;stroke-width:1.04;stroke-miterlimit:22.9256}
    .fil2 {fill:none}
    .fil1 {fill:#ABA994}
    .fil0 {fill:#ABA994}
   ]]>
  </style>
 </defs>
 <g id="Слой_x0020_1">
  <metadata id="CorelCorpID_0Corel-Layer"/>
  <path class="fil0 str0" d="M25.71 24.11c13.25,0 26.49,0 39.06,0.04 12.57,0.04 24.46,0.11 36.35,0.19 -0.22,-3.45 -0.45,-6.91 -0.8,-9.55 -0.35,-2.64 -0.84,-4.47 -1.38,-5.95 -0.54,-1.48 -1.14,-2.6 -1.74,-3.72 -5.38,-0.41 -10.76,-0.82 -16.25,-1.08 -5.49,-0.26 -11.09,-0.37 -16.96,-0.39 -5.86,-0.02 -11.99,0.06 -17.39,0.24 -5.4,0.19 -10.07,0.49 -12.89,0.67 -2.82,0.19 -3.79,0.26 -4.76,0.34 -0.6,1.12 -1.2,2.24 -1.68,3.7 -0.49,1.46 -0.86,3.25 -1.1,5.89 -0.24,2.64 -0.36,6.13 -0.47,9.63z"/>
  <path class="fil1 str0" d="M63.99 3.65c0.05,-1 0.1,-2 0.15,-3.01 -5.98,0.11 -11.95,0.22 -17.82,0.49 -5.86,0.26 -11.62,0.67 -17.37,1.08 -2.05,2.02 -4.11,4.03 -6.29,6.7 -2.18,2.67 -4.49,5.99 -6.86,9.22 -2.37,3.23 -4.81,6.37 -7.24,9.52 -1.05,2.13 -2.09,4.26 -3.34,7.23 -1.25,2.97 -2.71,6.78 -4.16,10.59 2.35,1.87 4.71,3.74 7.06,5.6 2.09,-1.31 4.18,-2.61 7.33,-4.75 3.14,-2.14 7.34,-5.11 11.53,-8.09 -0.42,-4.7 -0.84,-9.4 -0.96,-13.52 -0.12,-4.12 0.07,-7.64 0.33,-10.23 0.26,-2.59 0.6,-4.23 1.04,-5.67 0.45,-1.44 1.01,-2.67 1.57,-3.9 5.88,-0.34 11.77,-0.67 17.61,-0.88 5.84,-0.21 11.63,-0.29 17.43,-0.37z"/>
  <path class="fil1 str0" d="M64.14 0.64c-0.05,1 -0.1,2 -0.15,3.01 3.93,0.06 7.86,0.13 11.8,0.2 3.93,0.07 7.86,0.16 11.43,0.37 3.57,0.21 6.77,0.56 9.98,0.9 0.58,1.24 1.16,2.48 1.68,4.09 0.52,1.61 0.98,3.59 1.34,6.18 0.36,2.58 0.63,5.77 0.67,8.45 0.04,2.68 -0.16,4.87 -0.38,7.19 -0.22,2.32 -0.47,4.78 -0.73,7.25 1.46,0.94 2.91,1.88 4.98,3.37 2.07,1.5 4.76,3.55 7.21,5.29 2.45,1.74 4.65,3.16 6.85,4.58 2.43,-1.94 4.86,-3.88 7.28,-5.83 -0.97,-2.43 -1.94,-4.86 -2.77,-6.97 -0.83,-2.12 -1.51,-3.92 -2.07,-5.68 -0.56,-1.76 -1,-3.46 -1.43,-5.17 -1.83,-2.17 -3.66,-4.33 -5.64,-6.65 -1.98,-2.32 -4.11,-4.78 -6.29,-7.47 -2.19,-2.69 -4.43,-5.6 -6.01,-7.58 -1.59,-1.98 -2.52,-3.02 -3.46,-4.07 -2.8,-0.34 -5.6,-0.68 -8.85,-0.88 -3.25,-0.21 -6.95,-0.28 -10.36,-0.39 -3.42,-0.11 -6.56,-0.26 -9.02,-0.3 -2.47,-0.04 -4.26,0.04 -6.05,0.11z"/>
  <path class="fil1 str0" d="M26.97 38.22c-2.85,2.01 -5.71,4.03 -8.02,5.63 -2.31,1.61 -4.07,2.81 -5.79,3.94 -1.72,1.13 -3.38,2.2 -5.47,3.63 -2.09,1.43 -4.59,3.22 -7.09,5.01 1.34,4.26 2.69,8.52 4.43,13.71 1.74,5.19 3.87,11.32 5.85,16.66 1.98,5.34 3.81,9.9 6.07,15.13 2.26,5.23 4.95,11.13 7.4,16.96 2.45,5.83 4.65,11.58 7.32,17.72 2.67,6.14 5.81,12.68 8.65,18.99 2.84,6.31 5.38,12.4 8.09,18.73 2.71,6.33 5.58,12.91 7.54,17.65 1.96,4.74 3.01,7.66 4.05,10.57 0.74,-1.91 1.48,-3.82 2.06,-5.58 0.58,-1.77 1,-3.39 1.41,-5.01 -1.32,-5.22 -2.64,-10.43 -4.41,-17.14 -1.77,-6.7 -3.99,-14.9 -5.75,-21.32 -1.76,-6.42 -3.07,-11.07 -4.86,-17.72 -1.79,-6.65 -4.07,-15.3 -6.38,-24.59 -2.31,-9.29 -4.64,-19.21 -6.58,-27.98 -1.94,-8.77 -3.49,-16.39 -4.67,-22.47 -1.18,-6.08 -1.97,-10.62 -2.55,-14.12 -0.58,-3.5 -0.94,-5.96 -1.3,-8.43z"/>
  <path class="fil1 str0" d="M99.78 38.28c3.19,2.25 6.38,4.5 9.55,6.71 3.17,2.21 6.34,4.37 9.17,6.34 2.83,1.98 5.33,3.77 7.84,5.56 -1.72,4.56 -3.44,9.11 -5.62,15.22 -2.19,6.11 -4.84,13.76 -7.47,20.64 -2.63,6.87 -5.25,12.96 -7.99,19.31 -2.75,6.35 -5.62,12.96 -8.37,19.31 -2.75,6.35 -5.36,12.44 -8.16,19.09 -2.8,6.65 -5.79,13.86 -8.67,20.67 -2.88,6.82 -5.64,13.24 -8.18,19.35 -2.54,6.11 -4.86,11.9 -6.93,17.29 -2.07,5.4 -3.9,10.4 -5.34,13.91 -1.44,3.51 -2.48,5.53 -3.34,8.09 -0.86,2.56 -1.53,5.66 -2.2,8.76 -0.22,-3.06 -0.45,-6.13 -0.34,-9.06 0.11,-2.93 0.56,-5.73 1.16,-8.4 0.6,-2.67 1.34,-5.21 2.22,-8.27 0.88,-3.06 1.89,-6.65 3.11,-10.74 1.23,-4.1 2.67,-8.71 4.11,-13.71 1.44,-5 2.88,-10.39 4.51,-16.27 1.62,-5.88 3.43,-12.23 5.39,-19.54 1.96,-7.31 4.08,-15.56 6.4,-24.95 2.32,-9.39 4.84,-19.91 7.22,-29.7 2.38,-9.79 4.61,-18.84 6.33,-26.76 1.72,-7.92 2.93,-14.7 3.78,-19.99 0.85,-5.29 1.34,-9.07 1.84,-12.86z"/>
  <path class="fil2 str0" d="M109.86 55.99c1.08,1.23 2.17,2.46 3.19,3.57 1.03,1.1 2,2.07 2.88,2.86 0.88,0.78 1.66,1.38 2.32,1.49 0.65,0.11 1.18,-0.26 1.08,-0.79 -0.09,-0.52 -0.8,-1.2 -1.39,-1.64 -0.58,-0.45 -1.04,-0.68 -1.92,-1.31 -0.88,-0.63 -2.17,-1.68 -3.27,-2.44 -1.1,-0.76 -1.99,-1.25 -2.89,-1.74z"/>
 </g>
</svg>
