<?xml version="1.0" encoding="UTF-8"?>
<!DOCTYPE svg PUBLIC "-//W3C//DTD SVG 1.0//EN" "http://www.w3.org/TR/2001/REC-SVG-20010904/DTD/svg10.dtd">
<!-- Creator: CorelDRAW -->
<svg xmlns="http://www.w3.org/2000/svg" xml:space="preserve" width="47.503mm" height="77.584mm" version="1.0" style="shape-rendering:geometricPrecision; text-rendering:geometricPrecision; image-rendering:optimizeQuality; fill-rule:evenodd; clip-rule:evenodd"
viewBox="0 0 454.75 742.72"
 xmlns:xlink="http://www.w3.org/1999/xlink"
 xmlns:xodm="http://www.corel.com/coreldraw/odm/2003">
 <defs>
  <style type="text/css">
   <![CDATA[
    .str0 {stroke:#373435;stroke-width:1.91;stroke-miterlimit:22.9256}
    .fil2 {fill:none}
    .fil1 {fill:#ABA994}
    .fil3 {fill:#858474}
    .fil4 {fill:#605F54}
    .fil0 {fill:#605F54}
   ]]>
  </style>
 </defs>
 <g id="Слой_x0020_1">
  <metadata id="CorelCorpID_0Corel-Layer"/>
  <path class="fil0 str0" d="M157.52 0.96c10.08,0 20.16,0 32.52,0 12.36,0 27,0 40.95,0 13.95,0 27.21,0 38.08,0.07 10.88,0.07 19.37,0.21 27.86,0.34 -1.04,11.81 -2.07,23.62 -3.9,37.43 -1.83,13.81 -4.45,29.62 -7.18,42.98 -2.73,13.36 -5.56,24.27 -8.53,35.8 -2.97,11.53 -6.08,23.68 -9.25,36.8 -3.18,13.12 -6.42,27.2 -9.43,39.94 -3,12.74 -5.77,24.13 -8.91,35.67 -3.14,11.53 -6.66,23.2 -10.46,36.77 -3.8,13.57 -7.87,29.04 -11.95,44.5 -4.14,-16.57 -8.29,-33.14 -13.39,-51.93 -5.11,-18.78 -11.19,-39.77 -16.4,-58.9 -5.21,-19.13 -9.56,-36.39 -13.98,-54.86 -4.42,-18.47 -8.91,-38.15 -12.19,-53.83 -3.28,-15.68 -5.35,-27.34 -7.14,-37.45 -1.79,-10.1 -3.3,-18.64 -4.37,-27.27 -1.07,-8.63 -1.7,-17.36 -2.34,-26.08z"/>
  <path class="fil1 str0" d="M125.82 7.48c-12.44,3.94 -24.89,7.87 -39.19,12.33 -14.3,4.45 -30.46,9.43 -45.03,13.64 -14.57,4.21 -27.55,7.66 -40.53,11.12 2.9,19.61 5.8,39.22 9.53,63.25 3.73,24.03 8.28,52.48 12.7,78.58 4.42,26.1 8.7,49.85 12.64,73.95 3.94,24.1 7.53,48.54 9.6,68.91 2.07,20.37 2.62,36.67 2.83,53.93 0.21,17.26 0.07,35.49 0.28,50.89 0.21,15.4 0.76,27.97 0.52,38.98 -0.24,11.01 -1.28,20.47 -2.31,29.93 -1.38,-0.01 -2.75,-0.01 -4.13,-0.02 -0.76,8.22 -1.53,16.44 -1.84,24.01 -0.31,7.56 -0.18,14.47 0.1,28.76 0.28,14.29 0.69,35.98 0.97,55.1 0.28,19.13 0.41,35.7 1.1,50.96 0.69,15.26 1.93,29.21 3.18,43.16 -3.04,1.52 -6.08,3.04 -8.5,3.94 -2.42,0.9 -4.23,1.18 -6.04,1.46 -0.54,4.69 -1.08,9.38 -1.62,14.08 10.36,1.79 20.72,3.59 33.77,5.59 13.05,2 28.79,4.21 47.64,6.15 18.85,1.93 40.81,3.59 57.1,4.45 16.3,0.86 26.93,0.93 34.66,-0.79 7.73,-1.73 12.57,-5.25 16.37,-9.25 3.8,-4.01 6.56,-8.49 9.32,-12.98 -3.18,-8.22 -6.35,-16.44 -8.42,-24.76 -2.07,-8.32 -3.04,-16.74 -3.73,-25.72 -0.69,-8.98 -1.1,-18.51 -1.79,-32.59 -0.69,-14.09 -1.66,-32.73 -2.76,-49.92 -1.1,-17.19 -2.35,-32.94 -2.76,-48.47 -0.41,-15.54 0,-30.87 0.28,-47.85 0.28,-16.99 0.41,-35.63 0.42,-51.06 0.01,-15.43 -0.11,-27.65 -0.16,-37.86 -0.05,-10.2 -0.02,-18.39 0.92,-26.32 0.94,-7.93 2.78,-15.6 4.66,-22.75 1.88,-7.15 3.8,-13.77 5.71,-20.39 -4.23,-9.98 -8.46,-19.96 -13.7,-32.24 -5.24,-12.28 -11.49,-26.86 -18.85,-43.64 -7.36,-16.78 -15.83,-35.75 -23.67,-53.73 -7.84,-17.99 -15.05,-34.99 -22.08,-52.42 -7.04,-17.42 -13.9,-35.26 -19.18,-49.86 -5.29,-14.6 -9,-25.94 -12.71,-37.29 4.63,-3.31 9.25,-6.63 13.88,-9.94 -4.35,-3.45 -8.7,-6.9 -13.05,-10.36 1.83,-4.73 3.67,-9.46 5.98,-14.95 2.31,-5.49 5.11,-11.74 7.9,-17.99z"/>
  <path class="fil2 str0" d="M42.72 502.98c8.56,-0.13 17.12,-0.26 30.65,-0.12 13.53,0.14 32.04,0.56 50.54,0.97 0,6.77 0,13.53 -0.14,19.89 -0.14,6.35 -0.42,12.29 -1.17,16.57 -0.76,4.28 -2,6.91 -4.76,8.36 -2.76,1.45 -7.04,1.73 -16.78,1.52 -9.74,-0.21 -24.93,-0.9 -35.87,-1.31 -10.95,-0.41 -17.65,-0.55 -24.35,-0.68 -0.04,-4.56 -0.09,-9.13 -0.01,-13.89 0.08,-4.76 0.27,-9.71 0.61,-14.96 0.34,-5.25 0.81,-10.8 1.28,-16.34z"/>
  <path class="fil1 str0" d="M331.53 7.9c13.66,3.8 27.32,7.6 41.74,11.3 14.42,3.7 29.61,7.29 43.15,11.57 13.53,4.28 25.41,9.25 37.29,14.22 -2.76,19.89 -5.52,39.77 -9.12,61.59 -3.59,21.82 -8.01,45.57 -13.4,74.85 -5.39,29.28 -11.74,64.08 -15.88,88.52 -4.14,24.44 -6.08,38.53 -7.56,55.93 -1.48,17.4 -2.52,38.12 -3.07,52.27 -0.55,14.15 -0.62,21.75 -0.76,29.86 -0.14,8.11 -0.34,16.75 -0.24,25.79 0.1,9.04 0.52,18.5 1.21,27.34 0.69,8.84 1.66,17.06 2.31,23.48 0.66,6.42 1,11.05 1.35,15.67 1.24,0 2.49,0 3.73,0 0.14,4.35 0.28,8.7 0.48,14.29 0.21,5.59 0.48,12.43 0.41,18.5 -0.07,6.08 -0.48,11.39 -0.59,20.61 -0.1,9.22 0.1,22.34 0.14,36.01 0.03,13.67 -0.1,27.9 -0.52,42.4 -0.41,14.5 -1.1,29.28 -1.7,41.55 -0.6,12.28 -1.11,22.05 -1.62,31.83 4.78,-0.03 9.56,-0.07 14.34,-0.1 0.29,6.97 0.58,13.94 0.87,20.9 -3.8,0.69 -7.6,1.38 -11.6,1.97 -4.01,0.59 -8.22,1.07 -15.78,2.04 -7.56,0.97 -18.47,2.42 -32.59,3.94 -14.12,1.52 -31.45,3.11 -47.47,4.42 -16.02,1.31 -30.73,2.35 -41.47,2.73 -10.74,0.38 -17.5,0.1 -22.44,-0.76 -4.94,-0.86 -8.04,-2.31 -10.84,-4.35 -2.8,-2.04 -5.28,-4.66 -7.32,-7.63 -2.04,-2.97 -3.63,-6.29 -5.37,-10.52 -1.74,-4.23 -3.64,-9.37 -5.32,-14.18 -1.68,-4.81 -3.15,-9.28 -4.22,-15.12 -1.08,-5.84 -1.77,-13.05 -2.37,-21.13 -0.6,-8.08 -1.1,-17.02 -1.59,-26.14 -0.49,-9.12 -0.96,-18.42 -1.44,-27.18 -0.47,-8.76 -0.95,-16.99 -1.54,-26.45 -0.59,-9.46 -1.28,-20.15 -1.8,-29.96 -0.52,-9.81 -0.85,-18.73 -1,-27.16 -0.15,-8.43 -0.11,-16.37 0,-26.31 0.11,-9.94 0.29,-21.89 0.41,-32.66 0.12,-10.77 0.18,-20.37 0.19,-29.96 0.01,-9.6 -0.01,-19.2 -0.04,-26.43 -0.03,-7.23 -0.06,-12.11 -0.08,-16.98 0.87,-3.74 1.74,-7.48 3.29,-12.25 1.54,-4.77 3.76,-10.57 6.43,-17.51 2.67,-6.94 5.8,-15.02 9.57,-24.6 3.77,-9.58 8.17,-20.67 12.92,-32.23 4.75,-11.57 9.83,-23.61 15.54,-37.17 5.7,-13.55 12.02,-28.62 18.39,-43.61 6.37,-14.99 12.78,-29.91 18.93,-44.2 6.14,-14.29 12.01,-27.95 17.49,-41.49 5.48,-13.54 10.56,-26.94 14.87,-38.55 4.31,-11.6 7.84,-21.41 10.33,-28.66 2.49,-7.25 3.93,-11.96 5.38,-16.66 -4.63,-3.31 -9.25,-6.63 -13.88,-9.94 4.49,-3.59 8.98,-7.18 13.46,-10.77 -1.57,-3.81 -3.14,-7.63 -4.71,-11.76 -1.57,-4.13 -3.14,-8.59 -4.28,-12.17 -1.15,-3.58 -1.88,-6.29 -2.61,-9z"/>
  <path class="fil2 str0" d="M412.28 500.31c-1.24,0 -2.49,0 -6.81,-0.18 -4.32,-0.18 -11.72,-0.53 -25.22,-0.65 -13.5,-0.12 -33.1,-0.01 -52.69,0.1 -0.07,5.73 -0.14,11.46 -0.07,17.4 0.07,5.94 0.27,12.08 0.55,16.47 0.28,4.38 0.62,7.01 1.1,9.32 0.48,2.31 1.1,4.31 2.21,5.73 1.1,1.42 2.69,2.24 5.66,2.66 2.97,0.41 7.32,0.41 15.54,0.14 8.22,-0.28 20.3,-0.83 28.79,-1.1 8.49,-0.28 13.4,-0.28 17.94,-0.45 4.55,-0.17 8.74,-0.52 12.94,-0.86 0.18,-5.74 0.35,-11.48 0.39,-17 0.04,-5.52 -0.07,-10.82 -0.15,-16.04 -0.08,-5.23 -0.14,-10.38 -0.19,-15.53z"/>
  <ellipse class="fil3 str0" cx="228.12" cy="408.23" rx="12.22" ry="13.05"/>
  <ellipse class="fil3 str0" cx="228.53" cy="513.88" rx="12.22" ry="13.05"/>
  <rect class="fil0 str0" x="224.7" y="404.99" width="5.8" height="3.99"/>
  <rect class="fil0 str0" x="224.15" y="510.29" width="7.11" height="4.88"/>
  <path class="fil2 str0" d="M240.4 511.25c1.91,-0 3.81,-0.01 5.48,0.03 1.66,0.03 3.08,0.1 4.44,-0.36 1.36,-0.47 2.67,-1.47 3.61,-1.17 0.93,0.29 1.48,1.88 1.52,3.33 0.03,1.45 -0.45,2.76 -1.38,3.09 -0.93,0.33 -2.31,-0.33 -3.69,-0.71 -1.38,-0.38 -2.76,-0.48 -4.38,-0.45 -1.61,0.04 -3.46,0.21 -5.31,0.38 -0.1,-1.38 -0.19,-2.76 -0.29,-4.14z"/>
  <path class="fil2 str0" d="M240.63 405.96c1.91,-0 3.81,-0.01 5.48,0.03 1.66,0.03 3.08,0.1 4.44,-0.36 1.36,-0.47 2.67,-1.47 3.61,-1.17 0.93,0.29 1.48,1.88 1.52,3.33 0.03,1.45 -0.45,2.76 -1.38,3.09 -0.93,0.33 -2.31,-0.33 -3.69,-0.71 -1.38,-0.38 -2.76,-0.48 -4.38,-0.45 -1.61,0.04 -3.46,0.21 -5.31,0.38 -0.09,-1.38 -0.19,-2.76 -0.29,-4.14z"/>
  <path class="fil2 str0" d="M294.93 211.54c-0.14,5.66 -0.28,11.33 -0.41,16.99 34.53,-8.42 69.05,-16.85 103.58,-25.27 -0.69,-5.25 -1.38,-10.5 -2.07,-15.74 -33.7,8.01 -67.39,16.02 -101.09,24.03z"/>
  <path class="fil4 str0" d="M195.81 740.9c4.01,0.28 8.02,0.56 12.65,0.67 4.63,0.11 9.88,0.04 15.19,0 5.32,-0.03 10.7,-0.03 15.12,-0.07 4.42,-0.03 7.87,-0.1 11.57,-0.11 3.7,-0.01 7.64,0.04 11.58,0.09 -5.56,-0.57 -11.13,-1.14 -15.18,-2.51 -4.05,-1.38 -6.59,-3.57 -8.65,-5.86 -2.05,-2.3 -3.62,-4.7 -5.06,-7.31 -1.44,-2.6 -2.77,-5.4 -4.1,-8.2 -1.44,2.25 -2.88,4.49 -4.36,6.84 -1.48,2.35 -3,4.8 -5.02,6.9 -2.03,2.09 -4.56,3.82 -7.07,5.07 -2.51,1.24 -4.98,1.99 -7.76,2.66 -2.77,0.67 -5.85,1.25 -8.92,1.84z"/>
 </g>
</svg>
