<svg width="180" height="294" viewBox="0 0 180 294" fill="none" xmlns="http://www.w3.org/2000/svg">
<g clip-path="url(#clip0_2311_222)">
<path fill-rule="evenodd" clip-rule="evenodd" d="M62.1902 0.37902C66.1699 0.37902 70.1495 0.37902 75.0293 0.37902C79.9092 0.37902 85.6891 0.37902 91.1967 0.37902C96.7042 0.37902 101.939 0.37902 106.231 0.406657C110.526 0.434293 113.878 0.489566 117.23 0.540891C116.82 5.20356 116.413 9.86623 115.69 15.3185C114.968 20.7708 113.934 27.0127 112.856 32.2873C111.778 37.5619 110.661 41.8693 109.488 46.4214C108.316 50.9735 107.088 55.7704 105.836 60.9503C104.581 66.1301 103.301 71.689 102.113 76.7189C100.929 81.7487 99.8351 86.2455 98.5954 90.8016C97.3557 95.3537 95.9659 99.9611 94.4657 105.319C92.9654 110.676 91.3586 116.784 89.7477 122.888C88.1132 116.346 86.4748 109.804 84.4613 102.385C82.4438 94.9708 80.0434 86.6838 77.9864 79.1311C75.9295 71.5785 74.2121 64.7641 72.4671 57.472C70.722 50.1799 68.9493 42.4101 67.6544 36.2196C66.3594 30.029 65.5421 25.4256 64.8354 21.4341C64.1287 17.4465 63.5326 14.0749 63.1101 10.6677C62.6877 7.2605 62.439 3.81384 62.1863 0.371124L62.1902 0.37902Z" fill="#605F54" stroke="#373435" stroke-width="0.754081" stroke-miterlimit="22.9256"/>
<path fill-rule="evenodd" clip-rule="evenodd" d="M49.6749 2.95316C44.7635 4.50869 39.8481 6.06028 34.2024 7.82112C28.5567 9.57801 22.1766 11.5442 16.4242 13.2063C10.6719 14.8684 5.54732 16.2305 0.422729 17.5965C1.56767 25.3387 2.71261 33.0809 4.18524 42.5681C5.65787 52.0553 7.45424 63.2875 9.19928 73.592C10.9443 83.8964 12.6341 93.2731 14.1896 102.788C15.7452 112.303 17.1625 121.952 17.9798 129.994C18.797 138.036 19.0142 144.472 19.0971 151.286C19.18 158.1 19.1247 165.298 19.2076 171.378C19.2905 177.458 19.5077 182.42 19.4129 186.767C19.3182 191.114 18.9076 194.849 18.5009 198.584C17.9561 198.58 17.4152 198.58 16.8704 198.576C16.5703 201.821 16.2663 205.067 16.1439 208.055C16.0215 211.04 16.0729 213.768 16.1834 219.41C16.294 225.052 16.4558 233.615 16.5664 241.164C16.6769 248.716 16.7282 255.258 17.0007 261.283C17.2731 267.308 17.7626 272.815 18.2562 278.323C17.0559 278.923 15.8557 279.523 14.9003 279.878C13.9449 280.234 13.2303 280.344 12.5157 280.455C12.3025 282.307 12.0893 284.158 11.8761 286.014C15.9663 286.72 20.0565 287.431 25.2087 288.221C30.3609 289.01 36.5752 289.883 44.0173 290.649C51.4594 291.411 60.1293 292.066 66.5608 292.406C72.9961 292.745 77.1929 292.773 80.2448 292.094C83.2966 291.411 85.2075 290.021 86.7077 288.442C88.208 286.859 89.2977 285.09 90.3873 283.317C89.1319 280.072 87.8803 276.827 87.0631 273.542C86.2458 270.257 85.8629 266.933 85.5904 263.387C85.318 259.842 85.1561 256.08 84.8837 250.521C84.6113 244.958 84.2284 237.599 83.7941 230.812C83.3598 224.025 82.8663 217.807 82.7044 211.676C82.5425 205.54 82.7044 199.488 82.8149 192.784C82.9255 186.076 82.9768 178.717 82.9808 172.625C82.9847 166.533 82.9373 161.709 82.9176 157.678C82.8979 153.651 82.9097 150.417 83.2808 147.287C83.6519 144.156 84.3784 141.128 85.1206 138.305C85.8629 135.482 86.6209 132.868 87.375 130.255C85.7049 126.314 84.0349 122.374 81.9661 117.526C79.8973 112.678 77.4298 106.922 74.524 100.297C71.6182 93.6718 68.2742 86.1824 65.1789 79.0837C62.0836 71.9812 59.2371 65.2694 56.4616 58.388C53.6822 51.5104 50.9738 44.4671 48.8892 38.7029C46.8007 32.9387 45.3359 28.4616 43.8712 23.9806C45.6992 22.6738 47.5232 21.363 49.3511 20.0562C47.6337 18.6941 45.9163 17.332 44.1989 15.966C44.9214 14.0985 45.6478 12.2311 46.5598 10.0636C47.4718 7.89614 48.5773 5.42859 49.6788 2.96105L49.6749 2.95316Z" fill="#ABA994" stroke="#373435" stroke-width="0.754081" stroke-miterlimit="22.9256"/>
<path fill-rule="evenodd" clip-rule="evenodd" d="M16.8664 198.58C20.2459 198.529 23.6255 198.477 28.9672 198.533C34.309 198.588 41.6168 198.754 48.9208 198.915C48.9208 201.588 48.9208 204.257 48.8655 206.768C48.8102 209.275 48.6997 211.62 48.4036 213.31C48.1035 215 47.6139 216.038 46.5243 216.611C45.4346 217.183 43.7448 217.294 39.8994 217.211C36.054 217.128 30.0569 216.855 25.7377 216.694C21.4146 216.532 18.7694 216.476 16.1242 216.425C16.1084 214.625 16.0886 212.821 16.1202 210.941C16.1518 209.062 16.2268 207.108 16.361 205.035C16.4953 202.962 16.6808 200.771 16.8664 198.584V198.58Z" stroke="#373435" stroke-width="0.754081" stroke-miterlimit="22.9256"/>
<path fill-rule="evenodd" clip-rule="evenodd" d="M130.891 3.11897C136.284 4.61923 141.677 6.1195 147.37 7.58029C153.063 9.04107 159.06 10.4584 164.406 12.1482C169.747 13.838 174.438 15.8002 179.128 17.7624C178.038 25.6151 176.949 33.4638 175.527 42.0785C174.11 50.6932 172.365 60.0698 170.237 71.6298C168.109 83.1897 165.602 96.929 163.968 106.578C162.333 116.227 161.567 121.79 160.983 128.66C160.398 135.529 159.988 143.71 159.771 149.296C159.554 154.883 159.526 157.883 159.471 161.085C159.415 164.287 159.336 167.698 159.376 171.267C159.415 174.836 159.581 178.571 159.854 182.061C160.126 185.551 160.509 188.797 160.766 191.331C161.026 193.866 161.16 195.694 161.299 197.518C161.788 197.518 162.282 197.518 162.771 197.518C162.827 199.235 162.882 200.953 162.961 203.16C163.044 205.367 163.15 208.067 163.123 210.464C163.095 212.864 162.933 214.96 162.89 218.601C162.85 222.241 162.929 227.421 162.945 232.818C162.957 238.215 162.905 243.833 162.74 249.557C162.578 255.282 162.305 261.117 162.068 265.962C161.832 270.81 161.63 274.667 161.429 278.528C163.316 278.516 165.203 278.501 167.09 278.489C167.205 281.241 167.319 283.992 167.434 286.74C165.934 287.013 164.433 287.285 162.854 287.518C161.271 287.751 159.609 287.94 156.624 288.323C153.639 288.706 149.332 289.279 143.757 289.879C138.183 290.479 131.341 291.107 125.016 291.624C118.691 292.141 112.883 292.552 108.643 292.702C104.403 292.852 101.734 292.741 99.7838 292.402C97.8334 292.062 96.6095 291.49 95.5041 290.684C94.3986 289.879 93.4195 288.845 92.6141 287.672C91.8087 286.499 91.1809 285.189 90.494 283.519C89.807 281.849 89.0569 279.819 88.3936 277.92C87.7303 276.021 87.15 274.256 86.7275 271.951C86.3011 269.645 86.0287 266.799 85.7918 263.609C85.5549 260.418 85.3575 256.889 85.1641 253.288C84.9706 249.688 84.7851 246.016 84.5956 242.557C84.41 239.099 84.2205 235.85 83.9876 232.115C83.7546 228.38 83.4822 224.159 83.2769 220.286C83.0716 216.413 82.9413 212.892 82.8821 209.563C82.8229 206.235 82.8387 203.1 82.8821 199.176C82.9255 195.252 82.9966 190.534 83.044 186.282C83.0914 182.03 83.115 178.239 83.119 174.453C83.1229 170.663 83.115 166.873 83.1032 164.019C83.0914 161.164 83.0795 159.237 83.0716 157.315C83.4151 155.838 83.7586 154.362 84.3705 152.478C84.9785 150.595 85.855 148.305 86.9091 145.565C87.9633 142.825 89.199 139.635 90.6874 135.853C92.1759 132.071 93.913 127.692 95.7883 123.128C97.6637 118.56 99.6693 113.807 101.924 108.453C104.174 103.104 106.669 97.154 109.184 91.2359C111.699 85.3177 114.23 79.4272 116.658 73.7854C119.082 68.1436 121.399 62.7506 123.563 57.4049C125.727 52.0592 127.732 46.7688 129.434 42.1851C131.135 37.6053 132.529 33.7323 133.512 30.8699C134.495 28.0076 135.064 26.148 135.636 24.2925C133.808 22.9856 131.984 21.6749 130.156 20.3681C131.929 18.9507 133.702 17.5334 135.47 16.116C134.851 14.6118 134.231 13.1036 133.611 11.4731C132.991 9.84253 132.371 8.08169 131.921 6.66828C131.467 5.25487 131.179 4.18495 130.891 3.11502V3.11897Z" fill="#ABA994" stroke="#373435" stroke-width="0.754081" stroke-miterlimit="22.9256"/>
<path fill-rule="evenodd" clip-rule="evenodd" d="M162.771 197.526C162.282 197.526 161.788 197.526 160.083 197.455C158.377 197.384 155.455 197.245 150.126 197.198C144.796 197.151 137.057 197.194 129.323 197.238C129.296 199.5 129.268 201.762 129.296 204.107C129.323 206.452 129.402 208.876 129.513 210.61C129.623 212.339 129.757 213.377 129.947 214.289C130.136 215.201 130.381 215.991 130.819 216.552C131.254 217.112 131.881 217.436 133.054 217.602C134.227 217.764 135.944 217.764 139.189 217.657C142.435 217.546 147.204 217.329 150.556 217.223C153.908 217.112 155.846 217.112 157.639 217.045C159.435 216.978 161.089 216.84 162.747 216.705C162.819 214.439 162.886 212.173 162.901 209.994C162.917 207.814 162.874 205.722 162.842 203.661C162.811 201.596 162.787 199.563 162.767 197.53L162.771 197.526Z" stroke="#373435" stroke-width="0.754081" stroke-miterlimit="22.9256"/>
<path d="M90.0636 166.324C92.7281 166.324 94.8881 164.017 94.8881 161.172C94.8881 158.326 92.7281 156.02 90.0636 156.02C87.399 156.02 85.239 158.326 85.239 161.172C85.239 164.017 87.399 166.324 90.0636 166.324Z" fill="#858474" stroke="#373435" stroke-width="0.754081" stroke-miterlimit="22.9256"/>
<path d="M90.2254 208.036C92.8899 208.036 95.05 205.729 95.05 202.883C95.05 200.038 92.8899 197.731 90.2254 197.731C87.5609 197.731 85.4009 200.038 85.4009 202.883C85.4009 205.729 87.5609 208.036 90.2254 208.036Z" fill="#858474" stroke="#373435" stroke-width="0.754081" stroke-miterlimit="22.9256"/>
<path d="M91.0033 159.893H88.7134V161.468H91.0033V159.893Z" fill="#605F54" stroke="#373435" stroke-width="0.754081" stroke-miterlimit="22.9256"/>
<path d="M91.3033 201.466H88.4962V203.393H91.3033V201.466Z" fill="#605F54" stroke="#373435" stroke-width="0.754081" stroke-miterlimit="22.9256"/>
<path fill-rule="evenodd" clip-rule="evenodd" d="M94.9119 201.845C95.6659 201.845 96.4161 201.841 97.0754 201.857C97.7308 201.869 98.2914 201.896 98.8284 201.715C99.3653 201.529 99.8825 201.134 100.254 201.253C100.621 201.367 100.838 201.995 100.854 202.567C100.866 203.14 100.676 203.657 100.309 203.787C99.9417 203.918 99.3969 203.657 98.852 203.507C98.3072 203.357 97.7624 203.318 97.1228 203.329C96.4871 203.345 95.7568 203.412 95.0264 203.479C94.9869 202.935 94.9513 202.39 94.9119 201.845Z" stroke="#373435" stroke-width="0.754081" stroke-miterlimit="22.9256"/>
<path fill-rule="evenodd" clip-rule="evenodd" d="M95.0027 160.276C95.7568 160.276 96.5069 160.272 97.1662 160.288C97.8216 160.299 98.3822 160.327 98.9192 160.145C99.4561 159.96 99.9733 159.565 100.344 159.684C100.712 159.798 100.929 160.426 100.945 160.998C100.956 161.571 100.767 162.088 100.4 162.218C100.033 162.348 99.4877 162.088 98.9429 161.938C98.398 161.788 97.8532 161.748 97.2136 161.76C96.578 161.776 95.8476 161.843 95.1172 161.91C95.0816 161.365 95.0422 160.821 95.0027 160.276Z" stroke="#373435" stroke-width="0.754081" stroke-miterlimit="22.9256"/>
<path fill-rule="evenodd" clip-rule="evenodd" d="M116.441 83.5174C116.385 85.752 116.33 87.9906 116.279 90.2252C129.911 86.9009 143.54 83.5727 157.173 80.2484C156.9 78.1757 156.628 76.103 156.356 74.0342C143.051 77.1966 129.75 80.359 116.445 83.5214L116.441 83.5174Z" stroke="#373435" stroke-width="0.754081" stroke-miterlimit="22.9256"/>
<path fill-rule="evenodd" clip-rule="evenodd" d="M77.3074 292.512C78.8906 292.623 80.4738 292.733 82.3017 292.777C84.1297 292.82 86.2024 292.793 88.2988 292.777C90.3992 292.765 92.5233 292.765 94.2683 292.749C96.0134 292.737 97.3754 292.71 98.8362 292.706C100.297 292.702 101.853 292.722 103.408 292.741C101.213 292.516 99.0139 292.291 97.4149 291.75C95.816 291.206 94.8131 290.341 93.9998 289.437C93.1905 288.529 92.5706 287.581 92.0021 286.551C91.4336 285.524 90.9085 284.419 90.3834 283.313C89.8149 284.202 89.2464 285.086 88.6621 286.014C88.0777 286.942 87.4776 287.909 86.6801 288.738C85.8787 289.563 84.8798 290.246 83.8888 290.74C82.8979 291.229 81.9227 291.525 80.8251 291.79C79.7315 292.054 78.5155 292.283 77.3035 292.516L77.3074 292.512Z" fill="#605F54" stroke="#373435" stroke-width="0.754081" stroke-miterlimit="22.9256"/>
</g>
<defs>
<clipPath id="clip0_2311_222">
<rect width="179.539" height="293.231" fill="white"/>
</clipPath>
</defs>
</svg>
