<?xml version="1.0" encoding="UTF-8"?>
<!DOCTYPE svg PUBLIC "-//W3C//DTD SVG 1.0//EN" "http://www.w3.org/TR/2001/REC-SVG-20010904/DTD/svg10.dtd">
<!-- Creator: CorelDRAW -->
<svg xmlns="http://www.w3.org/2000/svg" xml:space="preserve" width="8.8101mm" height="61.8676mm" version="1.0" style="shape-rendering:geometricPrecision; text-rendering:geometricPrecision; image-rendering:optimizeQuality; fill-rule:evenodd; clip-rule:evenodd"
viewBox="0 0 32.16 225.86"
 xmlns:xlink="http://www.w3.org/1999/xlink"
 xmlns:xodm="http://www.corel.com/coreldraw/odm/2003">
 <defs>
  <style type="text/css">
   <![CDATA[
    .str0 {stroke:#373435;stroke-width:0.73;stroke-miterlimit:22.9256}
    .fil1 {fill:#A98F71}
    .fil0 {fill:#D2AE6D}
   ]]>
  </style>
 </defs>
 <g id="Слой_x0020_1">
  <metadata id="CorelCorpID_0Corel-Layer"/>
  <path class="fil0 str0" d="M16.25 0.57c-0.53,0.29 -1.06,0.58 -1.68,1.24 -0.61,0.66 -1.31,1.68 -2.03,3.08 -0.72,1.4 -1.47,3.16 -2.09,5.63 -0.63,2.47 -1.14,5.63 -1.72,9.12 -0.58,3.49 -1.23,7.3 -1.79,11.56 -0.56,4.26 -1.02,8.95 -1.56,13.39 -0.53,4.44 -1.14,8.63 -1.65,13.23 -0.51,4.6 -0.93,9.63 -1.23,14.72 -0.3,5.09 -0.49,10.26 -0.81,15.51 -0.33,5.26 -0.79,10.6 -1.05,16.39 -0.26,5.79 -0.3,12.02 -0.26,18.23 0.05,6.21 0.19,12.39 0.28,18.95 0.09,6.56 0.14,13.49 0.21,20.3 0.07,6.81 0.16,13.51 0.49,21.37 0.33,7.86 0.88,16.88 1.19,24.09 0.3,7.21 0.35,12.6 0.4,18 1.21,-0.3 2.42,-0.6 4.07,-1.02 1.65,-0.42 3.74,-0.95 6.06,-1.31 2.31,-0.36 4.85,-0.55 7.24,-0.59 2.39,-0.05 4.63,0.05 6.47,0.16 1.84,0.11 3.26,0.24 4.69,0.36 -0.26,-3.22 -0.53,-6.44 -0.76,-10.96 -0.23,-4.53 -0.43,-10.36 -0.57,-16.2 -0.15,-5.84 -0.24,-11.68 -0.31,-16.07 -0.07,-4.4 -0.13,-7.35 -0.08,-10.92 0.05,-3.57 0.2,-7.75 0.31,-10.16 0.11,-2.41 0.17,-3.06 0.2,-4.61 0.03,-1.55 0.03,-4 0.01,-7.54 -0.02,-3.54 -0.07,-8.17 -0.07,-12.99 0,-4.83 0.05,-9.85 0.07,-14.88 0.02,-5.03 0.02,-10.08 0.15,-14.05 0.13,-3.97 0.38,-6.87 0.64,-9.77 -0.21,-1.75 -0.42,-3.49 -0.71,-5.66 -0.29,-2.17 -0.65,-4.75 -1.09,-7.73 -0.45,-2.98 -0.98,-6.35 -1.4,-9.21 -0.42,-2.86 -0.74,-5.21 -1.21,-7.95 -0.47,-2.74 -1.09,-5.85 -1.58,-8.46 -0.49,-2.61 -0.85,-4.71 -1.32,-7.47 -0.47,-2.77 -1.04,-6.21 -1.5,-9.03 -0.46,-2.82 -0.82,-5.03 -1.25,-7.73 -0.43,-2.7 -0.93,-5.88 -1.36,-8.61 -0.43,-2.73 -0.78,-5 -1.16,-7.55 -0.39,-2.55 -0.81,-5.37 -1.19,-7.89 -0.38,-2.52 -0.71,-4.74 -1.03,-6.96z"/>
  <path class="fil1 str0" d="M3.84 225.38c1.06,-0.02 2.12,-0.04 3.22,-0.04 1.1,-0.01 2.24,-0.01 3.51,-0.01 1.27,0 2.66,0 4.08,0.01 1.42,0.01 2.86,0.04 4.28,0.04 1.42,0 2.81,-0.02 4.08,-0.12 1.27,-0.1 2.41,-0.27 3.45,-0.49 1.04,-0.22 1.96,-0.49 2.7,-0.75 0.73,-0.26 1.27,-0.52 1.81,-0.78 -1.06,-0.18 -2.13,-0.36 -3.76,-0.49 -1.64,-0.13 -3.85,-0.21 -5.9,-0.2 -2.05,0.01 -3.95,0.11 -5.66,0.28 -1.71,0.17 -3.24,0.4 -4.65,0.67 -1.41,0.27 -2.7,0.57 -3.87,0.9 -1.17,0.32 -2.23,0.66 -3.28,0.99z"/>
 </g>
</svg>
