<svg width="38" height="265" viewBox="0 0 38 265" fill="none" xmlns="http://www.w3.org/2000/svg">
<g clip-path="url(#clip0_2313_337)">
<path fill-rule="evenodd" clip-rule="evenodd" d="M18.9996 0.590393C18.3685 0.936476 17.7578 1.28256 17.0249 2.05616C16.3124 2.82976 15.4777 4.03087 14.6431 5.6595C13.788 7.28812 12.933 9.36462 12.1798 12.2554C11.4469 15.1462 10.8361 18.8514 10.1643 22.9433C9.49252 27.0352 8.71892 31.4936 8.06747 36.5016C7.41602 41.4893 6.86636 47.0063 6.23526 52.1975C5.60417 57.4091 4.89165 62.3154 4.30127 67.7102C3.71089 73.105 3.20194 78.9884 2.85586 84.9736C2.50978 90.9385 2.28584 97.0051 1.89904 103.153C1.51224 109.322 0.962582 115.592 0.677572 122.371C0.372205 129.15 0.331489 136.459 0.372205 143.747C0.433278 151.035 0.596141 158.282 0.69793 165.957C0.79972 173.652 0.860793 181.775 0.942224 189.755C1.02366 197.736 1.12544 205.594 1.51224 214.816C1.89904 224.038 2.55049 234.604 2.89658 243.052C3.24266 251.501 3.30373 257.832 3.36481 264.143C4.78986 263.797 6.19455 263.43 8.12854 262.942C10.0625 262.453 12.5258 261.822 15.2334 261.395C17.941 260.967 20.9133 260.764 23.7226 260.703C26.532 260.641 29.1582 260.764 31.3161 260.886C33.4741 261.008 35.1434 261.171 36.8127 261.313C36.5074 257.547 36.202 253.76 35.917 248.467C35.6523 243.154 35.408 236.314 35.2452 229.474C35.0823 222.633 34.9602 215.793 34.8787 210.643C34.7973 205.492 34.7362 202.031 34.7973 197.838C34.8584 193.664 35.0416 188.758 35.1638 185.928C35.2859 183.098 35.3673 182.345 35.3877 180.513C35.4284 178.701 35.4284 175.831 35.408 171.678C35.3877 167.525 35.3266 162.109 35.3266 156.45C35.3266 150.791 35.3877 144.907 35.408 139.003C35.4284 133.1 35.4284 127.196 35.5913 122.534C35.7338 117.872 36.0391 114.472 36.3445 111.072C36.1002 109.016 35.8559 106.98 35.5098 104.436C35.1841 101.891 34.7566 98.8577 34.2273 95.3765C33.698 91.8953 33.0873 87.9255 32.5783 84.5868C32.0897 81.2278 31.7029 78.4795 31.1533 75.263C30.6036 72.0464 29.8707 68.4024 29.3007 65.3487C28.7307 62.295 28.3032 59.8317 27.7535 56.5948C27.2038 53.3579 26.532 49.3271 25.9824 46.0087C25.4327 42.6904 25.0255 40.105 24.5166 36.9495C24.0077 33.794 23.4173 30.0482 22.9287 26.852C22.4197 23.6558 22.0126 20.9889 21.5647 18.0167C21.1168 15.0241 20.6079 11.7261 20.1804 8.75389C19.7325 5.802 19.3457 3.1962 18.9589 0.590393H18.9996Z" fill="#ABA994" stroke="#373435" stroke-width="0.75324" stroke-miterlimit="22.9256"/>
<path fill-rule="evenodd" clip-rule="evenodd" d="M4.46418 264.123C5.70601 264.102 6.94783 264.082 8.23038 264.062C9.51292 264.041 10.8565 264.041 12.3427 264.041C13.8288 264.041 15.4574 264.041 17.1268 264.062C18.7961 264.082 20.4858 264.102 22.1348 264.102C23.8041 264.102 25.4328 264.082 26.9189 263.96C28.405 263.838 29.7486 263.634 30.9701 263.39C32.1916 263.125 33.2705 262.82 34.1256 262.514C34.9806 262.209 35.6117 261.904 36.2428 261.598C35.0009 261.395 33.7591 261.171 31.8251 261.028C29.9115 260.886 27.326 260.784 24.9034 260.804C22.5012 260.825 20.2822 260.927 18.2668 261.13C16.2514 261.334 14.4599 261.598 12.8109 261.924C11.1619 262.25 9.65543 262.596 8.27109 262.983C6.90712 263.349 5.66529 263.756 4.42346 264.143L4.46418 264.123Z" fill="#605F54" stroke="#373435" stroke-width="0.75324" stroke-miterlimit="22.9256"/>
</g>
<defs>
<clipPath id="clip0_2313_337">
<rect width="37.4903" height="264.632" fill="white"/>
</clipPath>
</defs>
</svg>
