<?xml version="1.0" encoding="UTF-8"?>
<!DOCTYPE svg PUBLIC "-//W3C//DTD SVG 1.0//EN" "http://www.w3.org/TR/2001/REC-SVG-20010904/DTD/svg10.dtd">
<!-- Creator: CorelDRAW -->
<svg xmlns="http://www.w3.org/2000/svg" xml:space="preserve" width="9.9193mm" height="70.0171mm" version="1.0" style="shape-rendering:geometricPrecision; text-rendering:geometricPrecision; image-rendering:optimizeQuality; fill-rule:evenodd; clip-rule:evenodd"
viewBox="0 0 18.41 129.99"
 xmlns:xlink="http://www.w3.org/1999/xlink"
 xmlns:xodm="http://www.corel.com/coreldraw/odm/2003">
 <defs>
  <style type="text/css">
   <![CDATA[
    .str0 {stroke:#373435;stroke-width:0.37;stroke-miterlimit:22.9256}
    .fil0 {fill:#ABA994}
    .fil1 {fill:#605F54}
   ]]>
  </style>
 </defs>
 <g id="Слой_x0020_1">
  <metadata id="CorelCorpID_0Corel-Layer"/>
  <path class="fil0 str0" d="M9.33 0.29c-0.31,0.17 -0.61,0.34 -0.97,0.72 -0.35,0.38 -0.76,0.97 -1.17,1.77 -0.42,0.8 -0.84,1.82 -1.21,3.24 -0.36,1.42 -0.66,3.24 -0.99,5.25 -0.33,2.01 -0.71,4.2 -1.03,6.66 -0.32,2.45 -0.59,5.16 -0.9,7.71 -0.31,2.56 -0.66,4.97 -0.95,7.62 -0.29,2.65 -0.54,5.54 -0.71,8.48 -0.17,2.93 -0.28,5.91 -0.47,8.93 -0.19,3.03 -0.46,6.11 -0.6,9.44 -0.15,3.33 -0.17,6.92 -0.15,10.5 0.03,3.58 0.11,7.14 0.16,10.91 0.05,3.78 0.08,7.77 0.12,11.69 0.04,3.92 0.09,7.78 0.28,12.31 0.19,4.53 0.51,9.72 0.68,13.87 0.17,4.15 0.2,7.26 0.23,10.36 0.7,-0.17 1.39,-0.35 2.34,-0.59 0.95,-0.24 2.16,-0.55 3.49,-0.76 1.33,-0.21 2.79,-0.31 4.17,-0.34 1.38,-0.03 2.67,0.03 3.73,0.09 1.06,0.06 1.88,0.14 2.7,0.21 -0.15,-1.85 -0.3,-3.71 -0.44,-6.31 -0.13,-2.61 -0.25,-5.97 -0.33,-9.33 -0.08,-3.36 -0.14,-6.72 -0.18,-9.25 -0.04,-2.53 -0.07,-4.23 -0.04,-6.29 0.03,-2.05 0.12,-4.46 0.18,-5.85 0.06,-1.39 0.1,-1.76 0.11,-2.66 0.02,-0.89 0.02,-2.3 0.01,-4.34 -0.01,-2.04 -0.04,-4.7 -0.04,-7.48 0,-2.78 0.03,-5.67 0.04,-8.57 0.01,-2.9 0.01,-5.8 0.09,-8.09 0.07,-2.29 0.22,-3.96 0.37,-5.63 -0.12,-1.01 -0.24,-2.01 -0.41,-3.26 -0.16,-1.25 -0.37,-2.74 -0.63,-4.45 -0.26,-1.71 -0.56,-3.66 -0.81,-5.3 -0.24,-1.65 -0.43,-3 -0.7,-4.58 -0.27,-1.58 -0.63,-3.37 -0.91,-4.87 -0.28,-1.5 -0.49,-2.71 -0.76,-4.3 -0.27,-1.59 -0.6,-3.57 -0.87,-5.2 -0.27,-1.63 -0.47,-2.9 -0.72,-4.45 -0.25,-1.55 -0.54,-3.39 -0.78,-4.96 -0.25,-1.57 -0.45,-2.88 -0.67,-4.34 -0.22,-1.47 -0.47,-3.09 -0.68,-4.55 -0.22,-1.45 -0.41,-2.73 -0.6,-4.01z"/>
  <path class="fil1 str0" d="M2.19 129.74c0.61,-0.01 1.22,-0.02 1.85,-0.03 0.63,-0.01 1.29,-0.01 2.02,-0.01 0.73,0 1.53,0 2.35,0.01 0.82,0.01 1.65,0.02 2.46,0.02 0.82,0 1.62,-0.01 2.35,-0.07 0.73,-0.06 1.39,-0.16 1.99,-0.28 0.6,-0.13 1.13,-0.28 1.55,-0.43 0.42,-0.15 0.73,-0.3 1.04,-0.45 -0.61,-0.1 -1.22,-0.21 -2.17,-0.28 -0.94,-0.07 -2.21,-0.12 -3.4,-0.11 -1.18,0.01 -2.27,0.06 -3.26,0.16 -0.99,0.1 -1.87,0.23 -2.68,0.39 -0.81,0.16 -1.55,0.33 -2.23,0.52 -0.67,0.18 -1.28,0.38 -1.89,0.57z"/>
 </g>
</svg>
