<?xml version="1.0" encoding="UTF-8"?>
<!DOCTYPE svg PUBLIC "-//W3C//DTD SVG 1.0//EN" "http://www.w3.org/TR/2001/REC-SVG-20010904/DTD/svg10.dtd">
<!-- Creator: CorelDRAW -->
<svg xmlns="http://www.w3.org/2000/svg" xml:space="preserve" width="57.1809mm" height="82.1407mm" version="1.0" style="shape-rendering:geometricPrecision; text-rendering:geometricPrecision; image-rendering:optimizeQuality; fill-rule:evenodd; clip-rule:evenodd"
viewBox="0 0 646.12 928.16"
 xmlns:xlink="http://www.w3.org/1999/xlink"
 xmlns:xodm="http://www.corel.com/coreldraw/odm/2003">
 <defs>
  <style type="text/css">
   <![CDATA[
    .str0 {stroke:#373435;stroke-width:2.26;stroke-miterlimit:22.9256}
    .fil0 {fill:none}
   ]]>
  </style>
 </defs>
 <g id="Слой_x0020_1">
  <metadata id="CorelCorpID_0Corel-Layer"/>
  <path class="fil0 str0" d="M241.48 52.62c11.9,0 23.8,0 38.39,0 14.59,0 31.87,0 48.33,0 16.46,0 32.11,0 44.95,0.08 12.84,0.08 22.86,0.24 32.89,0.41 -1.22,13.94 -2.45,27.88 -4.6,44.18 -2.16,16.3 -5.26,34.96 -8.48,50.74 -3.22,15.77 -6.56,28.65 -10.07,42.26 -3.51,13.61 -7.17,27.96 -10.92,43.44 -3.75,15.49 -7.58,32.11 -11.13,47.15 -3.55,15.04 -6.81,28.49 -10.51,42.1 -3.71,13.61 -7.86,27.38 -12.35,43.4 -4.48,16.01 -9.29,34.27 -14.1,52.53 -4.89,-19.56 -9.78,-39.12 -15.81,-61.29 -6.03,-22.17 -13.2,-46.95 -19.36,-69.52 -6.15,-22.58 -11.29,-42.95 -16.51,-64.75 -5.22,-21.8 -10.51,-45.03 -14.39,-63.53 -3.87,-18.5 -6.32,-32.28 -8.43,-44.2 -2.11,-11.93 -3.89,-22.01 -5.15,-32.19 -1.26,-10.19 -2.01,-20.49 -2.76,-30.78z"/>
  <path class="fil0 str0" d="M241.48 52.62c28.91,0 57.81,0 85.24,0.08 27.43,0.08 53.37,0.24 79.32,0.41 -0.49,-7.54 -0.98,-15.08 -1.75,-20.84 -0.77,-5.77 -1.83,-9.76 -3.01,-12.98 -1.18,-3.22 -2.49,-5.66 -3.79,-8.11 -11.74,-0.9 -23.47,-1.79 -35.45,-2.36 -11.98,-0.57 -24.21,-0.81 -37,-0.86 -12.8,-0.04 -26.16,0.12 -37.94,0.53 -11.78,0.41 -21.97,1.06 -28.12,1.47 -6.15,0.41 -8.27,0.57 -10.39,0.73 -1.3,2.45 -2.61,4.89 -3.67,8.07 -1.06,3.18 -1.88,7.09 -2.4,12.86 -0.53,5.77 -0.78,13.39 -1.02,21.01z"/>
  <path class="fil0 str0" d="M325.02 7.96c0.11,-2.19 0.22,-4.37 0.32,-6.56 -13.04,0.25 -26.08,0.49 -38.88,1.06 -12.8,0.57 -25.35,1.47 -37.9,2.36 -4.48,4.4 -8.97,8.8 -13.73,14.62 -4.76,5.82 -9.8,13.06 -14.98,20.11 -5.17,7.05 -10.49,13.91 -15.8,20.77 -2.28,4.65 -4.56,9.29 -7.29,15.77 -2.73,6.48 -5.91,14.79 -9.09,23.11 5.13,4.08 10.27,8.15 15.4,12.23 4.56,-2.85 9.13,-5.7 15.99,-10.38 6.86,-4.67 16.01,-11.16 25.16,-17.65 -0.92,-10.26 -1.84,-20.52 -2.09,-29.5 -0.25,-8.98 0.16,-16.68 0.73,-22.33 0.57,-5.64 1.3,-9.23 2.28,-12.37 0.98,-3.14 2.2,-5.83 3.42,-8.52 12.84,-0.73 25.67,-1.47 38.42,-1.92 12.74,-0.46 25.39,-0.63 38.04,-0.81z"/>
  <path class="fil0 str0" d="M325.34 1.4c-0.11,2.19 -0.22,4.37 -0.32,6.56 8.58,0.14 17.16,0.28 25.74,0.44 8.58,0.16 17.15,0.34 24.94,0.81 7.79,0.47 14.78,1.22 21.78,1.97 1.26,2.7 2.53,5.41 3.66,8.92 1.13,3.51 2.14,7.84 2.93,13.48 0.79,5.64 1.38,12.58 1.46,18.44 0.08,5.86 -0.35,10.63 -0.84,15.7 -0.49,5.07 -1.04,10.44 -1.58,15.81 3.18,2.05 6.35,4.09 10.87,7.36 4.52,3.26 10.39,7.75 15.73,11.54 5.34,3.79 10.15,6.89 14.96,9.98 5.3,-4.24 10.6,-8.48 15.89,-12.71 -2.12,-5.3 -4.24,-10.6 -6.04,-15.21 -1.81,-4.62 -3.3,-8.56 -4.52,-12.39 -1.22,-3.83 -2.17,-7.55 -3.12,-11.27 -3.99,-4.73 -7.99,-9.46 -12.31,-14.51 -4.32,-5.05 -8.97,-10.43 -13.73,-16.3 -4.77,-5.87 -9.66,-12.23 -13.12,-16.54 -3.46,-4.32 -5.5,-6.6 -7.54,-8.88 -6.11,-0.74 -12.23,-1.47 -19.32,-1.92 -7.09,-0.45 -15.16,-0.61 -22.62,-0.86 -7.46,-0.25 -14.3,-0.57 -19.68,-0.65 -5.38,-0.08 -9.29,0.08 -13.2,0.24z"/>
  <path class="fil0 str0" d="M244.23 83.4c-6.23,4.39 -12.45,8.79 -17.49,12.29 -5.04,3.51 -8.88,6.13 -12.63,8.61 -3.74,2.47 -7.39,4.8 -11.94,7.92 -4.55,3.12 -10.01,7.03 -15.47,10.94 2.93,9.29 5.87,18.58 9.66,29.91 3.79,11.33 8.44,24.7 12.76,36.35 4.32,11.65 8.31,21.6 13.25,33.01 4.93,11.41 10.8,24.29 16.14,37 5.34,12.71 10.15,25.27 15.97,38.67 5.83,13.41 12.67,27.67 18.87,41.44 6.19,13.77 11.74,27.06 17.65,40.87 5.91,13.81 12.18,28.16 16.46,38.51 4.28,10.35 6.56,16.71 8.84,23.07 1.62,-4.16 3.23,-8.33 4.5,-12.18 1.26,-3.85 2.17,-7.39 3.08,-10.93 -2.88,-11.38 -5.75,-22.77 -9.61,-37.4 -3.86,-14.63 -8.7,-32.51 -12.55,-46.52 -3.85,-14.01 -6.69,-24.15 -10.6,-38.66 -3.91,-14.51 -8.89,-33.39 -13.92,-53.65 -5.03,-20.26 -10.12,-41.91 -14.36,-61.05 -4.24,-19.14 -7.62,-35.76 -10.18,-49.02 -2.57,-13.26 -4.31,-23.17 -5.57,-30.81 -1.27,-7.64 -2.06,-13.01 -2.85,-18.39z"/>
  <path class="fil0 str0" d="M403.11 83.52c6.96,4.91 13.91,9.82 20.84,14.63 6.93,4.81 13.82,9.53 20,13.84 6.18,4.31 11.64,8.23 17.1,12.14 -3.75,9.94 -7.5,19.89 -12.27,33.21 -4.77,13.33 -10.56,30.03 -16.3,45.03 -5.75,15 -11.45,28.28 -17.44,42.14 -5.99,13.86 -12.27,28.28 -18.26,42.14 -5.99,13.86 -11.7,27.14 -17.81,41.65 -6.11,14.51 -12.63,30.24 -18.91,45.11 -6.28,14.87 -12.31,28.89 -17.85,42.22 -5.54,13.32 -10.6,25.96 -15.12,37.74 -4.52,11.78 -8.52,22.7 -11.65,30.36 -3.14,7.66 -5.42,12.06 -7.3,17.65 -1.87,5.58 -3.34,12.35 -4.81,19.11 -0.49,-6.68 -0.98,-13.37 -0.73,-19.76 0.24,-6.4 1.22,-12.51 2.53,-18.34 1.3,-5.83 2.93,-11.37 4.85,-18.05 1.91,-6.68 4.11,-14.51 6.79,-23.45 2.67,-8.94 5.82,-19 8.97,-29.91 3.14,-10.91 6.29,-22.68 9.83,-35.5 3.54,-12.82 7.48,-26.7 11.76,-42.64 4.28,-15.94 8.9,-33.96 13.96,-54.45 5.06,-20.49 10.56,-43.45 15.75,-64.81 5.19,-21.36 10.06,-41.11 13.82,-58.39 3.75,-17.28 6.39,-32.08 8.25,-43.61 1.86,-11.53 2.93,-19.8 4.01,-28.06z"/>
  <path class="fil0 str0" d="M204.07 60.32c-14.69,4.65 -29.38,9.29 -46.26,14.55 -16.88,5.26 -35.95,11.13 -53.15,16.1 -17.2,4.97 -32.52,9.05 -47.84,13.12 3.42,23.15 6.85,46.29 11.25,74.66 4.4,28.36 9.78,61.94 15,92.75 5.22,30.81 10.27,58.84 14.8,84.13 4.53,25.28 8.55,47.81 9.81,95.61 1.27,47.8 -0.22,120.87 -1.7,193.94 -0.9,9.71 -1.8,19.41 -2.17,28.34 -0.37,8.93 -0.21,17.08 0.12,33.95 0.33,16.87 0.81,42.46 1.14,65.04 0.33,22.58 0.49,42.14 1.3,60.15 0.81,18.01 2.28,34.48 3.75,50.94 -3.59,1.79 -7.17,3.59 -10.03,4.65 -2.86,1.06 -4.99,1.39 -7.13,1.72 -0.64,5.54 -1.28,11.08 -1.91,16.61 12.23,2.12 24.45,4.24 39.86,6.6 15.4,2.36 33.99,4.97 56.24,7.25 22.25,2.28 48.17,4.24 67.4,5.26 19.23,1.02 31.78,1.1 40.91,-0.93 9.13,-2.04 14.83,-6.2 19.32,-10.92 4.48,-4.73 7.74,-10.03 11,-15.32 -3.75,-9.7 -7.5,-19.4 -9.94,-29.22 -2.45,-9.82 -3.59,-19.76 -4.4,-30.36 -0.81,-10.6 -1.3,-21.84 -2.12,-38.47 -0.81,-16.63 -1.96,-38.63 -3.26,-58.93 -1.3,-20.3 -2.77,-38.88 -3.26,-57.22 -0.49,-18.34 0,-36.43 0.33,-56.48 0.33,-20.05 0.49,-42.05 0.5,-60.27 0.01,-18.22 -0.14,-32.64 -0.19,-44.69 -0.05,-12.05 -0.02,-21.71 1.09,-31.07 1.11,-9.36 3.28,-18.41 5.51,-26.85 2.22,-8.44 4.48,-16.25 6.74,-24.07 -4.99,-11.78 -9.98,-23.56 -16.17,-38.06 -6.18,-14.5 -13.56,-31.71 -22.25,-51.51 -8.69,-19.8 -18.69,-42.19 -27.94,-63.42 -9.25,-21.23 -17.76,-41.3 -26.07,-61.87 -8.31,-20.57 -16.4,-41.62 -22.64,-58.85 -6.24,-17.23 -10.62,-30.62 -15,-44.02 5.46,-3.91 10.92,-7.82 16.38,-11.74 -5.14,-4.07 -10.27,-8.15 -15.4,-12.23 2.16,-5.58 4.33,-11.16 7.06,-17.64 2.73,-6.48 6.03,-13.86 9.32,-21.24z"/>
  <path class="fil0 str0" d="M446.87 60.81c16.12,4.49 32.24,8.97 49.27,13.33 17.03,4.36 34.96,8.6 50.93,13.65 15.97,5.05 29.99,10.92 44.01,16.79 -3.26,23.47 -6.52,46.94 -10.76,72.7 -4.24,25.75 -9.45,53.79 -15.81,88.35 -6.36,34.56 -13.86,75.64 -18.74,104.49 -4.89,28.85 -7.17,45.48 -7.33,88.76 -0.16,43.28 1.79,113.21 3.75,183.14 0.16,5.13 0.33,10.27 0.57,16.87 0.24,6.6 0.57,14.67 0.49,21.84 -0.08,7.17 -0.57,13.45 -0.69,24.33 -0.12,10.88 0.12,26.37 0.16,42.51 0.04,16.14 -0.12,32.93 -0.61,50.04 -0.49,17.12 -1.3,34.56 -2.01,49.05 -0.71,14.49 -1.31,26.03 -1.92,37.57 5.64,-0.04 11.28,-0.08 16.93,-0.12 0.34,8.22 0.68,16.45 1.02,24.67 -4.48,0.81 -8.97,1.63 -13.69,2.32 -4.73,0.69 -9.7,1.26 -18.62,2.4 -8.93,1.14 -21.8,2.85 -38.47,4.65 -16.67,1.79 -37.12,3.67 -56.03,5.21 -18.91,1.55 -36.27,2.77 -48.94,3.22 -12.67,0.45 -20.66,0.12 -26.49,-0.9 -5.83,-1.02 -9.5,-2.73 -12.8,-5.13 -3.3,-2.4 -6.24,-5.5 -8.64,-9.01 -2.41,-3.51 -4.28,-7.42 -6.34,-12.41 -2.06,-4.99 -4.29,-11.06 -6.28,-16.74 -1.98,-5.67 -3.71,-10.95 -4.99,-17.85 -1.27,-6.9 -2.09,-15.41 -2.79,-24.94 -0.71,-9.53 -1.3,-20.09 -1.88,-30.85 -0.58,-10.77 -1.13,-21.74 -1.69,-32.08 -0.56,-10.34 -1.12,-20.06 -1.81,-31.22 -0.69,-11.17 -1.51,-23.78 -2.12,-35.36 -0.61,-11.57 -1.01,-22.1 -1.18,-32.05 -0.18,-9.95 -0.13,-19.32 0,-31.06 0.13,-11.74 0.34,-25.84 0.48,-38.55 0.14,-12.71 0.21,-24.04 0.22,-35.37 0.02,-11.33 -0.02,-22.66 -0.05,-31.2 -0.03,-8.54 -0.07,-14.29 -0.1,-20.04 1.03,-4.41 2.06,-8.82 3.88,-14.46 1.82,-5.63 4.44,-12.48 7.59,-20.67 3.15,-8.19 6.84,-17.72 11.29,-29.03 4.45,-11.31 9.65,-24.4 15.25,-38.05 5.6,-13.65 11.61,-27.87 18.34,-43.87 6.73,-16 14.19,-33.78 21.71,-51.47 7.52,-17.7 15.09,-35.3 22.34,-52.17 7.25,-16.87 14.18,-33 20.65,-48.97 6.46,-15.98 12.47,-31.8 17.55,-45.5 5.08,-13.7 9.25,-25.27 12.19,-33.83 2.94,-8.56 4.64,-14.11 6.35,-19.67 -5.46,-3.91 -10.92,-7.82 -16.38,-11.74 5.3,-4.24 10.6,-8.48 15.89,-12.71 -1.85,-4.5 -3.7,-9 -5.55,-13.88 -1.85,-4.88 -3.7,-10.14 -5.05,-14.37 -1.36,-4.23 -2.22,-7.43 -3.08,-10.63z"/>
  <path class="fil0 str0" d="M591.08 104.59c3.02,1.31 6.04,2.61 9.53,8.15 3.49,5.54 7.44,15.32 10.88,28.94 3.44,13.61 6.38,31.05 8.99,51.27 2.61,20.21 4.89,43.2 6.93,62.59 2.04,19.4 3.83,35.21 5.87,53.06 2.04,17.85 4.32,37.74 6.03,56.4 1.71,18.66 2.85,36.11 3.18,51.84 0.33,15.73 -0.16,29.75 -0,47.44 0.16,17.69 0.98,39.04 1.63,64.63 0.65,25.59 1.14,55.42 0.73,83.3 -0.41,27.87 -1.71,53.79 -2.85,80.93 -1.14,27.14 -2.12,55.5 -3.01,81.5 -0.9,26 -1.71,49.64 -1.91,68.83 -0.19,19.19 0.24,33.95 0.67,48.7 -6.44,-1.47 -12.88,-2.93 -19.61,-4.28 -6.73,-1.34 -13.77,-2.57 -20.59,-3.32 -6.83,-0.75 -13.45,-1.04 -20.1,-1.04 -6.65,0 -13.33,0.28 -20.02,0.57 -6.41,0.04 -12.83,0.09 -19.25,0.13 0.23,-4.45 0.46,-8.9 0.76,-14.67 0.29,-5.77 0.65,-12.85 1.09,-22 0.43,-9.15 0.94,-20.36 1.34,-30.52 0.4,-10.17 0.68,-19.3 0.89,-31.36 0.2,-12.06 0.33,-27.06 0.47,-40.36 0.14,-13.3 0.3,-24.92 0.28,-36.41 -0.02,-11.49 -0.21,-22.86 -0.32,-32.19 -0.11,-9.33 -0.13,-16.63 -0.19,-22.07 -0.07,-5.44 -0.19,-9.03 -0.3,-12.62 -0.04,-3.72 -0.08,-7.44 -0.05,-16.39 0.03,-8.95 0.12,-23.13 0.13,-34.95 0.02,-11.82 -0.03,-21.27 -0.12,-30.44 -0.08,-9.17 -0.2,-18.05 -0.33,-26.61 -0.13,-8.56 -0.29,-16.79 -0.44,-24.25 -0.15,-7.46 -0.3,-14.15 -0.45,-20.75 -0.15,-6.61 -0.31,-13.13 -0.52,-21.94 -0.22,-8.81 -0.49,-19.89 -0.75,-28.81 -0.25,-8.92 -0.49,-15.68 -0.1,-22.71 0.39,-7.03 1.39,-14.33 2.49,-21.68 1.1,-7.35 2.3,-14.77 3.53,-22.08 1.22,-7.32 2.47,-14.54 3.85,-22.37 1.37,-7.83 2.87,-16.26 4.21,-23.7 1.33,-7.44 2.49,-13.87 3.99,-22.06 1.49,-8.19 3.31,-18.13 4.22,-23.1 0.91,-4.97 0.91,-4.97 1.45,-7.92 0.54,-2.95 1.63,-8.86 3.56,-19.39 1.93,-10.54 4.7,-25.71 7.29,-39.44 2.59,-13.73 5,-26.02 6.58,-35.43 1.58,-9.41 2.31,-15.95 3.49,-24.77 1.18,-8.82 2.8,-19.92 4.01,-28.4 1.22,-8.49 2.04,-14.37 2.86,-20.25z"/>
  <path class="fil0 str0" d="M537.64 884.23c1.23,-0.81 13.13,-0.58 21.54,-0.53 8.41,0.05 13.33,-0.06 18.01,-0.05 4.68,0.01 9.12,0.16 13.92,0.53 4.8,0.37 9.95,0.96 14.76,1.67 4.81,0.71 9.29,1.52 13.64,2.39 4.35,0.87 8.57,1.78 11.24,2.46 2.66,0.68 3.76,1.13 4.86,1.59 -3.28,0.2 -6.57,0.41 -11.83,0.49 -5.27,0.08 -12.52,0.04 -20.47,-0.1 -7.95,-0.14 -16.59,-0.39 -23.13,-0.75 -6.54,-0.37 -10.98,-0.86 -14.78,-1.41 -3.8,-0.55 -6.95,-1.17 -10.11,-1.78 -9.44,-1.84 -18.87,-3.69 -17.64,-4.5z"/>
  <path class="fil0 str0" d="M56.82 104.09c-1.86,1.02 -3.72,2.05 -5.88,4.35 -2.15,2.31 -4.6,5.89 -7.13,10.78 -2.53,4.89 -5.13,11.08 -7.33,19.72 -2.2,8.64 -3.99,19.72 -6.03,31.95 -2.04,12.23 -4.32,25.59 -6.28,40.51 -1.96,14.91 -3.59,31.38 -5.46,46.95 -1.88,15.57 -3.99,30.24 -5.79,46.38 -1.79,16.14 -3.26,33.74 -4.32,51.59 -1.06,17.85 -1.71,35.94 -2.85,54.36 -1.14,18.42 -2.77,37.16 -3.67,57.46 -0.9,20.29 -1.06,42.14 -0.9,63.9 0.16,21.76 0.65,43.44 0.98,66.42 0.33,22.98 0.49,47.27 0.73,71.15 0.24,23.88 0.57,47.35 1.71,74.9 1.14,27.55 3.1,59.17 4.16,84.44 1.06,25.27 1.22,44.17 1.39,63.08 4.24,-1.06 8.48,-2.12 14.26,-3.59 5.79,-1.47 13.12,-3.34 21.23,-4.61 8.11,-1.26 16.99,-1.91 25.37,-2.08 8.38,-0.16 16.24,0.16 22.67,0.55 6.43,0.39 11.43,0.83 16.43,1.27 -0.92,-11.28 -1.85,-22.56 -2.65,-38.43 -0.81,-15.87 -1.49,-36.32 -2,-56.78 -0.51,-20.46 -0.84,-40.92 -1.1,-56.33 -0.26,-15.41 -0.45,-25.76 -0.27,-38.26 0.18,-12.5 0.71,-27.16 1.09,-35.62 0.37,-8.46 0.58,-10.73 0.69,-16.16 0.11,-5.43 0.12,-14.02 0.04,-26.42 -0.08,-12.4 -0.24,-28.62 -0.24,-45.53 0,-16.91 0.16,-34.52 0.24,-52.16 0.08,-17.64 0.08,-35.33 0.53,-49.26 0.45,-13.92 1.35,-24.08 2.25,-34.25 -0.74,-6.12 -1.47,-12.24 -2.47,-19.83 -1,-7.59 -2.27,-16.65 -3.84,-27.09 -1.57,-10.44 -3.43,-22.25 -4.92,-32.28 -1.48,-10.03 -2.59,-18.27 -4.23,-27.86 -1.64,-9.59 -3.82,-20.52 -5.54,-29.66 -1.72,-9.14 -2.98,-16.49 -4.61,-26.19 -1.63,-9.7 -3.64,-21.76 -5.27,-31.65 -1.63,-9.9 -2.88,-17.63 -4.38,-27.09 -1.51,-9.45 -3.27,-20.61 -4.76,-30.17 -1.49,-9.56 -2.72,-17.52 -4.07,-26.44 -1.36,-8.93 -2.85,-18.83 -4.17,-27.66 -1.32,-8.84 -2.47,-16.61 -3.62,-24.38z"/>
  <path class="fil0 str0" d="M13.32 891.99c3.71,-0.06 7.42,-0.13 11.28,-0.16 3.85,-0.03 7.85,-0.03 12.29,-0.03 4.44,0 9.33,0 14.3,0.04 4.97,0.04 10.03,0.12 15,0.12 4.97,0 9.86,-0.08 14.31,-0.43 4.45,-0.35 8.46,-0.96 12.09,-1.73 3.63,-0.77 6.88,-1.71 9.45,-2.62 2.57,-0.92 4.46,-1.82 6.35,-2.72 -3.73,-0.64 -7.45,-1.27 -13.19,-1.73 -5.74,-0.45 -13.48,-0.72 -20.67,-0.69 -7.19,0.04 -13.83,0.39 -19.83,0.97 -6,0.59 -11.37,1.41 -16.31,2.36 -4.94,0.95 -9.46,2.01 -13.56,3.14 -4.11,1.12 -7.81,2.3 -11.5,3.48z"/>
  <path class="fil0 str0" d="M286.67 926.01c4.73,0.33 9.47,0.67 14.93,0.79 5.46,0.13 11.66,0.04 17.93,0 6.28,-0.04 12.63,-0.04 17.85,-0.08 5.22,-0.04 9.29,-0.12 13.65,-0.13 4.36,-0.01 9.01,0.05 13.67,0.11 -6.57,-0.67 -13.13,-1.34 -17.92,-2.97 -4.78,-1.63 -7.78,-4.21 -10.21,-6.92 -2.42,-2.71 -4.27,-5.55 -5.97,-8.62 -1.71,-3.07 -3.27,-6.38 -4.83,-9.68 -1.7,2.65 -3.4,5.3 -5.14,8.08 -1.75,2.77 -3.54,5.67 -5.93,8.14 -2.39,2.47 -5.39,4.51 -8.34,5.98 -2.96,1.46 -5.88,2.35 -9.15,3.14 -3.27,0.79 -6.9,1.48 -10.53,2.17z"/>
 </g>
</svg>
